<svg width="82" height="28" viewBox="0 0 82 28" fill="none" xmlns="http://www.w3.org/2000/svg">
<path fill-rule="evenodd" clip-rule="evenodd" d="M16.1812 27.8959V15.9559H29.6844L31.1332 17.7241L32.6298 15.9559H81.6433V27.0725C81.6433 27.0725 80.3615 27.884 78.879 27.8959H51.7393L50.1059 26.0138V27.8959H44.7533V24.683C44.7533 24.683 44.0222 25.1315 42.4414 25.1315H40.6195V27.8959H32.5153L31.0686 26.0898L29.5997 27.8959H16.1812ZM0.448273 6.95672L3.4864 0.31028H8.74052L10.4647 4.03334V0.31028H16.9961L18.0225 3.0012L19.0175 0.31028H48.3366V1.66309C48.3366 1.66309 49.8778 0.31028 52.4108 0.31028L61.9238 0.341478L63.6182 4.01582V0.31028H69.084L70.5883 2.42089V0.31028H76.1042V12.2503H70.5883L69.1466 10.1329V12.2503H61.1162L60.3086 10.3682H58.1498L57.3553 12.2503H51.9094C49.7298 12.2503 48.3366 10.9251 48.3366 10.9251V12.2503H40.1253L38.4956 10.3682V12.2503H7.96216L7.15514 10.3682H5.00317L4.20185 12.2503H0.448273V6.95672ZM0.463943 10.7226L4.56171 1.78223H7.66834L11.7622 10.7226H9.03557L8.2834 8.93231H3.88789L3.1318 10.7226H0.463943ZM7.41762 6.99131L6.07781 3.86292L4.73409 6.99131H7.41762ZM12.0443 10.7211V1.78073L15.8354 1.79394L18.0405 7.55811L20.1928 1.78073H23.9536V10.7211H21.5718V4.13345L19.0469 10.7211H16.958L14.4261 4.13345V10.7211H12.0443ZM25.5834 10.7211V1.78073H33.3558V3.78054H27.9903V5.30981H33.2304V7.19199H27.9903V8.78008H33.3558V10.7211H25.5834ZM34.7348 10.7226V1.78223H40.0352C41.7915 1.78223 43.3652 2.80134 43.3652 4.6827C43.3652 6.291 42.0384 7.32692 40.7522 7.42877L43.8862 10.7226H40.9755L38.1195 7.5464H37.1167V10.7226H34.7348ZM39.8394 3.78204H37.1167V5.66422H39.8746C40.352 5.66422 40.9676 5.31709 40.9676 4.72313C40.9676 4.26146 40.4925 3.78204 39.8394 3.78204ZM46.7695 10.7211H44.3375V1.78073H46.7695V10.7211ZM52.5362 10.7211H52.0112C49.4713 10.7211 47.9291 8.84332 47.9291 6.28766C47.9291 3.66887 49.454 1.78073 52.6615 1.78073H55.2941V3.89818H52.5653C51.2632 3.89818 50.3423 4.8517 50.3423 6.30972C50.3423 8.04112 51.3953 8.76831 52.9123 8.76831H53.5391L52.5362 10.7211ZM53.6213 10.7226L57.7191 1.78223H60.8257L64.9196 10.7226H62.193L61.4408 8.93231H57.0453L56.2892 10.7226H53.6213ZM60.575 6.99131L59.2352 3.86292L57.8915 6.99131H60.575ZM65.1977 10.7211V1.78073H68.226L72.0926 7.39786V1.78073H74.4745V10.7211H71.5442L67.5796 4.95691V10.7211H65.1977ZM17.8109 26.3667V17.4263H25.5834V19.4261H20.2179V20.9554H25.458V22.8376H20.2179V24.4257H25.5834V26.3667H17.8109ZM55.8959 26.3667V17.4263H63.6683V19.4261H58.3028V20.9554H63.5179V22.8376H58.3028V24.4257H63.6683V26.3667H55.8959ZM25.885 26.3667L29.6694 21.9516L25.7949 17.4263H28.7957L31.1032 20.2239L33.4185 17.4263H36.3018L32.4783 21.8965L36.2696 26.3667H33.2692L31.0288 23.6132L28.8428 26.3667H25.885ZM36.5525 26.3682V17.4278H41.8138C43.9726 17.4278 45.2338 18.7335 45.2338 20.4349C45.2338 22.4888 43.6258 23.5449 41.5043 23.5449H38.9971V26.3682H36.5525ZM41.6375 19.4497H38.9971V21.5083H41.6297C42.3254 21.5083 42.8128 21.0757 42.8128 20.479C42.8128 19.8439 42.3229 19.4497 41.6375 19.4497ZM46.2681 26.3667V17.4263H51.5685C53.3248 17.4263 54.8985 18.4454 54.8985 20.3268C54.8985 21.9351 53.5717 22.971 52.2855 23.0729L55.4195 26.3667H52.5088L49.6529 23.1905H48.65V26.3667H46.2681ZM51.3727 19.4261H48.65V21.3083H51.4079C51.8853 21.3083 52.5009 20.9612 52.5009 20.3672C52.5009 19.9056 52.0258 19.4261 51.3727 19.4261ZM64.7715 26.3667V24.4257H69.5384C70.2437 24.4257 70.5491 24.068 70.5491 23.6757C70.5491 23.2999 70.2447 22.9199 69.5384 22.9199H67.3843C65.5119 22.9199 64.4691 21.8494 64.4691 20.2422C64.4691 18.8087 65.424 17.4263 68.2064 17.4263H72.8448L71.8419 19.4379H67.8303C67.0635 19.4379 66.8274 19.8155 66.8274 20.1761C66.8274 20.5467 67.1192 20.9554 67.705 20.9554H69.9615C72.0488 20.9554 72.9545 22.0664 72.9545 23.5214C72.9545 25.0855 71.9452 26.3667 69.8479 26.3667H64.7715ZM73.1645 26.3667V24.4257H77.9314C78.6367 24.4257 78.9421 24.068 78.9421 23.6757C78.9421 23.2999 78.6377 22.9199 77.9314 22.9199H75.7773C73.9049 22.9199 72.8621 21.8494 72.8621 20.2422C72.8621 18.8087 73.817 17.4263 76.5994 17.4263H81.2378L80.2349 19.4379H76.2233C75.4565 19.4379 75.2204 19.8155 75.2204 20.1761C75.2204 20.5467 75.5122 20.9554 76.098 20.9554H78.3545C80.4418 20.9554 81.3475 22.0664 81.3475 23.5214C81.3475 25.0855 80.3382 26.3667 78.2409 26.3667H73.1645Z" fill="white"/>
</svg>
