<svg width="546" height="555" viewBox="0 0 546 555" fill="none" xmlns="http://www.w3.org/2000/svg">
<circle cx="409.88" cy="304.636" r="4.54269" transform="rotate(33 409.88 304.636)" fill="#FF9480"/>
<circle cx="424.989" cy="303.613" r="4.54269" transform="rotate(33 424.989 303.613)" fill="#FF9480"/>
<circle cx="430.199" cy="317.83" r="4.54269" transform="rotate(33 430.199 317.83)" fill="#FF9480"/>
<path d="M411.454 312.758C409.17 312.705 407.735 313.14 405.914 314.411C400.67 318.072 402.801 327.652 408.622 330.874C412.682 333.121 417.275 333.266 420.314 330.064C423.407 326.805 422.216 321.732 420.093 318.368C417.97 315.005 415.433 312.85 411.454 312.758Z" fill="#FF9480"/>
<path d="M96.9736 365.054C101.404 340.105 107.006 326.566 117.492 303.497C121.2 295.341 124.341 291.262 127.752 282.978C140.051 253.11 151.889 219.468 138.011 200.903C124.781 183.204 117.874 164.842 117.5 130.188C117.468 127.207 119.699 124.67 122.659 124.317C158.168 120.075 173.786 125.47 200.62 139.761C202.51 140.767 204.795 140.707 206.619 139.586L221.374 130.519C254.423 112.197 279.357 111.1 319.115 123.215C322.239 124.167 325.576 122.503 326.758 119.459C335.235 97.6314 346.104 85.9037 371.783 71.8562C374.247 70.5079 377.335 71.1083 379.125 73.274C404.951 104.524 411.262 123.09 414.868 154.436C414.968 155.302 415.248 156.139 415.691 156.889C419.997 164.192 443.666 205.39 447.849 235.784C450.361 254.043 441.346 265.733 447.849 282.978C451.145 291.722 455.917 295.171 460.16 303.497C475.631 333.861 478.361 349.821 478.607 351.43C478.622 351.526 478.631 351.614 478.639 351.711C480.084 369.068 480.365 385.588 479.597 401.271" stroke="black" stroke-width="5"/>
<path d="M150.941 192.675C146.414 186.53 120.919 150.432 137.246 138.167C152.471 126.73 181.006 153.343 185.8 158.004C186.194 158.387 186.178 159 185.789 159.389L152.415 192.763C151.988 193.19 151.299 193.161 150.941 192.675Z" fill="#F05F4B"/>
<path d="M371.163 93.3638C348.232 88.6847 331.161 133.88 328.45 141.522C328.243 142.105 328.629 142.696 329.24 142.792L392.617 152.694C393.21 152.787 393.748 152.368 393.755 151.767C393.848 144.02 393.461 97.9137 371.163 93.3638Z" fill="#F05F4B"/>
<path d="M406.046 241.851H516.849M406.046 269.07L512.416 290.008M406.046 220.913L512.416 187.413" stroke="black" stroke-width="4"/>
<path d="M162.392 259.46L53.2726 278.701M157.665 232.655L49.275 230.506M166.028 280.08L67.0905 331.543" stroke="black" stroke-width="4"/>
<path d="M432.229 357.876C458.996 315.149 451.362 305.579 434.69 290.456C415.191 275.143 402.229 280.071 374.032 322.66" stroke="black" stroke-width="4"/>
<path d="M287.259 206.97C282.939 170.115 307.233 156.376 335.616 151.81C371.259 146.076 394.51 198.482 398.161 214.497C401.806 230.484 384.173 301.24 351.899 297.734C351.792 297.723 351.683 297.727 351.578 297.748C329.572 302.002 291.569 243.736 287.259 206.97Z" fill="#FFB578"/>
<ellipse cx="360.699" cy="245.246" rx="12.2162" ry="11.5732" fill="#FF9480"/>
<ellipse cx="205.103" cy="260.677" rx="12.2162" ry="11.5732" fill="#FF9480"/>
<ellipse cx="215.39" cy="230.457" rx="27.6472" ry="26.3613" fill="black"/>
<path d="M246.426 256.06C247.102 264.044 252.048 269.76 259.852 271.576C270.468 274.047 270.391 254.83 281.223 253.627C292.709 252.351 296.234 272.658 306.931 268.284C316.225 264.485 320.831 254.429 317.638 244.91" stroke="black" stroke-width="4"/>
<ellipse cx="207.675" cy="218.241" rx="5.78662" ry="6.42958" fill="white"/>
<ellipse cx="221.178" cy="236.887" rx="12.8592" ry="12.2162" fill="white"/>
<circle cx="342.697" cy="218.884" r="26.3613" fill="black"/>
<ellipse cx="334.338" cy="206.025" rx="6.42958" ry="5.78662" fill="white"/>
<ellipse cx="349.769" cy="224.028" rx="12.8592" ry="12.2162" fill="white"/>
<path d="M290.847 284.676H211.879C205.252 284.676 199.879 290.048 199.879 296.676V411.985C199.879 418.612 205.252 423.985 211.879 423.985H290.847C297.474 423.985 302.847 418.612 302.847 411.985V296.676C302.847 290.048 297.474 284.676 290.847 284.676Z" fill="#F5D27E" stroke="#3D2A29" stroke-width="2"/>
<path d="M283.275 296.79H220.964C214.337 296.79 208.964 302.162 208.964 308.79V401.385C208.964 408.013 214.337 413.385 220.964 413.385H283.275C289.903 413.385 295.275 408.013 295.275 401.385V308.79C295.275 302.162 289.903 296.79 283.275 296.79Z" fill="#E1BB56" stroke="#3D2A29" stroke-width="2"/>
<mask id="path-23-outside-1_84_130" maskUnits="userSpaceOnUse" x="234.037" y="351.816" width="36" height="36" fill="black">
<rect fill="white" x="234.037" y="351.816" width="36" height="36"/>
<path d="M258.347 358.2C258.528 359.242 258.766 360.364 259.061 361.566C259.378 362.767 259.797 364.002 260.319 365.272C260.863 366.541 261.554 367.799 262.393 369.046C263.231 370.292 264.285 371.482 265.555 372.616L263.753 375.03C262.506 373.67 261.395 372.196 260.421 370.61C259.469 369.023 258.607 367.266 257.837 365.34C257.066 363.413 256.341 361.294 255.661 358.982L258.347 358.2ZM237.097 360.036C237.618 360.081 238.23 360.081 238.933 360.036C239.681 359.99 240.565 359.922 241.585 359.832C242.605 359.718 243.636 359.582 244.679 359.424C245.721 359.242 246.685 359.061 247.569 358.88C248.475 358.698 249.167 358.517 249.643 358.336L250.459 360.716C250.232 360.784 249.937 360.874 249.575 360.988C249.212 361.078 248.906 361.192 248.657 361.328C248.226 361.645 247.693 362.132 247.059 362.79C246.447 363.424 245.801 364.206 245.121 365.136C244.463 366.042 243.84 367.062 243.251 368.196C242.684 369.329 242.219 370.542 241.857 371.834C241.494 373.126 241.313 374.463 241.313 375.846C241.313 377.047 241.483 378.067 241.823 378.906C242.185 379.722 242.673 380.379 243.285 380.878C243.919 381.354 244.633 381.705 245.427 381.932C246.243 382.158 247.081 382.272 247.943 382.272C250.663 382.272 252.771 381.365 254.267 379.552C255.785 377.716 256.703 375.154 257.021 371.868C257.361 368.558 257.089 364.682 256.205 360.24L258.687 364.83C259.049 366.779 259.242 368.717 259.265 370.644C259.287 372.57 259.106 374.406 258.721 376.152C258.335 377.874 257.701 379.404 256.817 380.742C255.933 382.079 254.754 383.133 253.281 383.904C251.807 384.674 250.005 385.06 247.875 385.06C246.537 385.06 245.302 384.867 244.169 384.482C243.058 384.119 242.083 383.575 241.245 382.85C240.429 382.124 239.794 381.229 239.341 380.164C238.887 379.076 238.661 377.829 238.661 376.424C238.661 374.837 238.842 373.352 239.205 371.97C239.59 370.564 240.077 369.25 240.667 368.026C241.279 366.802 241.959 365.68 242.707 364.66C243.455 363.617 244.203 362.676 244.951 361.838C244.384 361.906 243.727 361.996 242.979 362.11C242.253 362.2 241.551 362.291 240.871 362.382C240.191 362.472 239.635 362.54 239.205 362.586C238.887 362.631 238.57 362.676 238.253 362.722C237.958 362.767 237.641 362.824 237.301 362.892L237.097 360.036ZM261.305 356.296C261.554 356.704 261.815 357.202 262.087 357.792C262.381 358.358 262.665 358.925 262.937 359.492C263.231 360.058 263.469 360.58 263.651 361.056L261.883 361.736C261.679 361.214 261.441 360.659 261.169 360.07C260.919 359.48 260.659 358.914 260.387 358.37C260.115 357.803 259.854 357.304 259.605 356.874L261.305 356.296ZM264.773 354.97C265.158 355.582 265.577 356.352 266.031 357.282C266.484 358.188 266.869 359.004 267.187 359.73L265.419 360.376C265.101 359.605 264.739 358.778 264.331 357.894C263.923 357.01 263.515 356.25 263.107 355.616L264.773 354.97Z"/>
</mask>
<path d="M258.347 358.2C258.528 359.242 258.766 360.364 259.061 361.566C259.378 362.767 259.797 364.002 260.319 365.272C260.863 366.541 261.554 367.799 262.393 369.046C263.231 370.292 264.285 371.482 265.555 372.616L263.753 375.03C262.506 373.67 261.395 372.196 260.421 370.61C259.469 369.023 258.607 367.266 257.837 365.34C257.066 363.413 256.341 361.294 255.661 358.982L258.347 358.2ZM237.097 360.036C237.618 360.081 238.23 360.081 238.933 360.036C239.681 359.99 240.565 359.922 241.585 359.832C242.605 359.718 243.636 359.582 244.679 359.424C245.721 359.242 246.685 359.061 247.569 358.88C248.475 358.698 249.167 358.517 249.643 358.336L250.459 360.716C250.232 360.784 249.937 360.874 249.575 360.988C249.212 361.078 248.906 361.192 248.657 361.328C248.226 361.645 247.693 362.132 247.059 362.79C246.447 363.424 245.801 364.206 245.121 365.136C244.463 366.042 243.84 367.062 243.251 368.196C242.684 369.329 242.219 370.542 241.857 371.834C241.494 373.126 241.313 374.463 241.313 375.846C241.313 377.047 241.483 378.067 241.823 378.906C242.185 379.722 242.673 380.379 243.285 380.878C243.919 381.354 244.633 381.705 245.427 381.932C246.243 382.158 247.081 382.272 247.943 382.272C250.663 382.272 252.771 381.365 254.267 379.552C255.785 377.716 256.703 375.154 257.021 371.868C257.361 368.558 257.089 364.682 256.205 360.24L258.687 364.83C259.049 366.779 259.242 368.717 259.265 370.644C259.287 372.57 259.106 374.406 258.721 376.152C258.335 377.874 257.701 379.404 256.817 380.742C255.933 382.079 254.754 383.133 253.281 383.904C251.807 384.674 250.005 385.06 247.875 385.06C246.537 385.06 245.302 384.867 244.169 384.482C243.058 384.119 242.083 383.575 241.245 382.85C240.429 382.124 239.794 381.229 239.341 380.164C238.887 379.076 238.661 377.829 238.661 376.424C238.661 374.837 238.842 373.352 239.205 371.97C239.59 370.564 240.077 369.25 240.667 368.026C241.279 366.802 241.959 365.68 242.707 364.66C243.455 363.617 244.203 362.676 244.951 361.838C244.384 361.906 243.727 361.996 242.979 362.11C242.253 362.2 241.551 362.291 240.871 362.382C240.191 362.472 239.635 362.54 239.205 362.586C238.887 362.631 238.57 362.676 238.253 362.722C237.958 362.767 237.641 362.824 237.301 362.892L237.097 360.036ZM261.305 356.296C261.554 356.704 261.815 357.202 262.087 357.792C262.381 358.358 262.665 358.925 262.937 359.492C263.231 360.058 263.469 360.58 263.651 361.056L261.883 361.736C261.679 361.214 261.441 360.659 261.169 360.07C260.919 359.48 260.659 358.914 260.387 358.37C260.115 357.803 259.854 357.304 259.605 356.874L261.305 356.296ZM264.773 354.97C265.158 355.582 265.577 356.352 266.031 357.282C266.484 358.188 266.869 359.004 267.187 359.73L265.419 360.376C265.101 359.605 264.739 358.778 264.331 357.894C263.923 357.01 263.515 356.25 263.107 355.616L264.773 354.97Z" fill="#B78933"/>
<path d="M258.347 358.2L260.317 357.857L259.934 355.654L257.788 356.279L258.347 358.2ZM259.061 361.566L257.118 362.042L257.122 362.059L257.127 362.076L259.061 361.566ZM260.319 365.272L258.469 366.032L258.474 366.046L258.48 366.06L260.319 365.272ZM262.393 369.046L264.052 367.929L262.393 369.046ZM265.555 372.616L267.157 373.812L268.253 372.344L266.887 371.124L265.555 372.616ZM263.753 375.03L262.278 376.381L263.91 378.162L265.355 376.226L263.753 375.03ZM260.421 370.61L258.706 371.639L258.711 371.648L258.716 371.657L260.421 370.61ZM257.837 365.34L259.694 364.597V364.597L257.837 365.34ZM255.661 358.982L255.102 357.061L253.176 357.622L253.742 359.546L255.661 358.982ZM237.097 360.036L237.27 358.043L234.935 357.84L235.102 360.178L237.097 360.036ZM238.933 360.036L238.812 358.039L238.804 358.04L238.933 360.036ZM241.585 359.832L241.762 361.824L241.784 361.822L241.805 361.819L241.585 359.832ZM244.679 359.424L244.98 361.401L245 361.398L245.021 361.394L244.679 359.424ZM247.569 358.88L247.176 356.918L247.167 356.92L247.569 358.88ZM249.643 358.336L251.535 357.687L250.864 355.73L248.931 356.467L249.643 358.336ZM250.459 360.716L251.033 362.631L253.025 362.034L252.351 360.067L250.459 360.716ZM249.575 360.988L250.06 362.928L250.116 362.914L250.171 362.897L249.575 360.988ZM248.657 361.328L247.699 359.572L247.58 359.637L247.47 359.718L248.657 361.328ZM247.059 362.79L245.62 361.4L245.619 361.401L247.059 362.79ZM245.121 365.136L243.507 363.955L243.501 363.962L245.121 365.136ZM243.251 368.196L241.476 367.273L241.469 367.287L241.462 367.301L243.251 368.196ZM241.857 371.834L239.931 371.293H239.931L241.857 371.834ZM241.823 378.906L239.969 379.657L239.982 379.688L239.995 379.718L241.823 378.906ZM243.285 380.878L242.021 382.428L242.052 382.454L242.085 382.478L243.285 380.878ZM245.427 381.932L244.877 383.855L244.884 383.857L244.891 383.859L245.427 381.932ZM254.267 379.552L252.726 378.277L252.724 378.279L254.267 379.552ZM257.021 371.868L255.031 371.663L255.03 371.675L257.021 371.868ZM256.205 360.24L257.964 359.288L254.243 360.63L256.205 360.24ZM258.687 364.83L260.653 364.464L260.595 364.155L260.446 363.878L258.687 364.83ZM258.721 376.152L260.672 376.588L260.674 376.583L258.721 376.152ZM256.817 380.742L255.148 379.639L256.817 380.742ZM253.281 383.904L254.208 385.676L253.281 383.904ZM244.169 384.482L244.812 382.588L244.801 382.584L244.789 382.58L244.169 384.482ZM241.245 382.85L239.916 384.344L239.926 384.354L239.936 384.362L241.245 382.85ZM239.341 380.164L237.494 380.933L237.497 380.94L237.5 380.947L239.341 380.164ZM239.205 371.97L237.276 371.441L237.273 371.452L237.27 371.462L239.205 371.97ZM240.667 368.026L238.878 367.131L238.871 367.145L238.865 367.158L240.667 368.026ZM242.707 364.66L244.319 365.842L244.326 365.834L244.332 365.825L242.707 364.66ZM244.951 361.838L246.443 363.169L249.964 359.222L244.712 359.852L244.951 361.838ZM242.979 362.11L243.227 364.094L243.253 364.091L243.278 364.087L242.979 362.11ZM239.205 362.586L238.995 360.597L238.958 360.601L238.922 360.606L239.205 362.586ZM238.253 362.722L237.97 360.742L237.959 360.743L237.949 360.745L238.253 362.722ZM237.301 362.892L235.306 363.034L235.467 365.298L237.693 364.853L237.301 362.892ZM261.305 356.296L263.011 355.253L262.176 353.887L260.661 354.402L261.305 356.296ZM262.087 357.792L260.271 358.63L260.29 358.673L260.312 358.714L262.087 357.792ZM262.937 359.492L261.134 360.357L261.147 360.386L261.162 360.414L262.937 359.492ZM263.651 361.056L264.369 362.922L266.229 362.207L265.52 360.344L263.651 361.056ZM261.883 361.736L260.02 362.464L260.745 364.316L262.601 363.602L261.883 361.736ZM261.169 360.07L259.327 360.849L259.339 360.879L259.353 360.908L261.169 360.07ZM260.387 358.37L258.584 359.235L258.591 359.25L258.598 359.264L260.387 358.37ZM259.605 356.874L258.961 354.98L256.652 355.765L257.874 357.876L259.605 356.874ZM264.773 354.97L266.465 353.904L265.587 352.509L264.05 353.105L264.773 354.97ZM266.031 357.282L264.233 358.159L264.237 358.167L264.242 358.176L266.031 357.282ZM267.187 359.73L267.873 361.608L269.872 360.878L269.019 358.928L267.187 359.73ZM265.419 360.376L263.569 361.137L264.301 362.913L266.105 362.254L265.419 360.376ZM264.331 357.894L266.147 357.056V357.056L264.331 357.894ZM263.107 355.616L262.384 353.751L260.1 354.637L261.424 356.697L263.107 355.616ZM256.376 358.542C256.567 359.637 256.814 360.804 257.118 362.042L261.003 361.089C260.717 359.925 260.489 358.848 260.317 357.857L256.376 358.542ZM257.127 362.076C257.469 363.371 257.917 364.689 258.469 366.032L262.169 364.512C261.677 363.315 261.287 362.163 260.994 361.055L257.127 362.076ZM258.48 366.06C259.078 367.453 259.831 368.821 260.733 370.162L264.052 367.929C263.277 366.777 262.648 365.629 262.157 364.484L258.48 366.06ZM260.733 370.162C261.676 371.564 262.845 372.878 264.223 374.108L266.887 371.124C265.726 370.087 264.786 369.021 264.052 367.929L260.733 370.162ZM263.952 371.419L262.15 373.833L265.355 376.226L267.157 373.812L263.952 371.419ZM265.227 373.678C264.067 372.413 263.033 371.042 262.125 369.563L258.716 371.657C259.757 373.351 260.945 374.926 262.278 376.381L265.227 373.678ZM262.136 369.581C261.245 368.096 260.429 366.436 259.694 364.597L255.98 366.082C256.785 368.096 257.693 369.95 258.706 371.639L262.136 369.581ZM259.694 364.597C258.95 362.737 258.244 360.678 257.579 358.417L253.742 359.546C254.437 361.909 255.182 364.089 255.98 366.082L259.694 364.597ZM256.22 360.902L258.906 360.12L257.788 356.279L255.102 357.061L256.22 360.902ZM236.923 362.028C237.573 362.085 238.29 362.081 239.061 362.032L238.804 358.04C238.17 358.081 237.663 358.077 237.27 358.043L236.923 362.028ZM239.054 362.032C239.826 361.985 240.729 361.916 241.762 361.824L241.408 357.84C240.4 357.929 239.536 357.995 238.812 358.039L239.054 362.032ZM241.805 361.819C242.853 361.703 243.911 361.564 244.98 361.401L244.378 357.446C243.361 357.601 242.356 357.734 241.364 357.844L241.805 361.819ZM245.021 361.394C246.08 361.21 247.064 361.025 247.971 360.839L247.167 356.92C246.305 357.097 245.362 357.275 244.336 357.453L245.021 361.394ZM247.961 360.841C248.904 360.652 249.723 360.445 250.355 360.205L248.931 356.467C248.61 356.589 248.047 356.744 247.176 356.919L247.961 360.841ZM247.751 358.984L248.567 361.364L252.351 360.067L251.535 357.687L247.751 358.984ZM249.884 358.8C249.647 358.871 249.344 358.964 248.978 359.079L250.171 362.897C250.53 362.784 250.817 362.696 251.033 362.631L249.884 358.8ZM249.09 359.047C248.611 359.167 248.136 359.334 247.699 359.572L249.614 363.083C249.676 363.05 249.813 362.99 250.06 362.928L249.09 359.047ZM247.47 359.718C246.908 360.132 246.286 360.71 245.62 361.4L248.497 364.179C249.101 363.554 249.544 363.158 249.843 362.938L247.47 359.718ZM245.619 361.401C244.929 362.117 244.225 362.973 243.507 363.955L246.735 366.317C247.376 365.44 247.965 364.731 248.498 364.178L245.619 361.401ZM243.501 363.962C242.779 364.958 242.105 366.064 241.476 367.273L245.025 369.118C245.575 368.061 246.148 367.126 246.74 366.31L243.501 363.962ZM241.462 367.301C240.835 368.554 240.326 369.886 239.931 371.293L243.782 372.374C244.113 371.197 244.533 370.104 245.039 369.09L241.462 367.301ZM239.931 371.293C239.518 372.766 239.313 374.286 239.313 375.846H243.313C243.313 374.64 243.47 373.485 243.782 372.374L239.931 371.293ZM239.313 375.846C239.313 377.225 239.506 378.516 239.969 379.657L243.676 378.154C243.459 377.618 243.313 376.869 243.313 375.846H239.313ZM239.995 379.718C240.468 380.783 241.136 381.706 242.021 382.428L244.548 379.327C244.21 379.052 243.902 378.66 243.65 378.093L239.995 379.718ZM242.085 382.478C242.922 383.106 243.859 383.564 244.877 383.855L245.976 380.009C245.408 379.846 244.916 379.601 244.485 379.278L242.085 382.478ZM244.891 383.859C245.885 384.135 246.903 384.272 247.943 384.272V380.272C247.259 380.272 246.601 380.182 245.962 380.005L244.891 383.859ZM247.943 384.272C251.155 384.272 253.871 383.173 255.809 380.824L252.724 378.279C251.67 379.557 250.17 380.272 247.943 380.272V384.272ZM255.808 380.826C257.662 378.585 258.67 375.596 259.011 372.06L255.03 371.675C254.737 374.713 253.909 376.847 252.726 378.277L255.808 380.826ZM259.01 372.072C259.376 368.507 259.076 364.422 258.166 359.849L254.243 360.63C255.101 364.943 255.345 368.61 255.031 371.663L259.01 372.072ZM254.445 361.191L256.927 365.781L260.446 363.878L257.964 359.288L254.445 361.191ZM256.72 365.195C257.063 367.035 257.243 368.859 257.265 370.667L261.264 370.62C261.24 368.575 261.036 366.523 260.653 364.464L256.72 365.195ZM257.265 370.667C257.286 372.453 257.118 374.136 256.768 375.72L260.674 376.583C261.094 374.677 261.289 372.688 261.264 370.62L257.265 370.667ZM256.769 375.715C256.431 377.224 255.885 378.524 255.148 379.639L258.485 381.845C259.516 380.285 260.239 378.524 260.672 376.588L256.769 375.715ZM255.148 379.639C254.458 380.683 253.539 381.512 252.354 382.131L254.208 385.676C255.969 384.754 257.407 383.475 258.485 381.845L255.148 379.639ZM252.354 382.131C251.236 382.716 249.771 383.06 247.875 383.06V387.06C250.24 387.06 252.379 386.632 254.208 385.676L252.354 382.131ZM247.875 383.06C246.731 383.06 245.716 382.895 244.812 382.588L243.525 386.375C244.888 386.839 246.344 387.06 247.875 387.06V383.06ZM244.789 382.58C243.918 382.296 243.18 381.879 242.553 381.337L239.936 384.362C240.987 385.271 242.198 385.942 243.548 386.383L244.789 382.58ZM242.573 381.355C241.992 380.838 241.526 380.191 241.181 379.381L237.5 380.947C238.062 382.267 238.866 383.411 239.916 384.344L242.573 381.355ZM241.187 379.394C240.853 378.592 240.661 377.615 240.661 376.424H236.661C236.661 378.043 236.922 379.559 237.494 380.933L241.187 379.394ZM240.661 376.424C240.661 374.99 240.824 373.677 241.139 372.477L237.27 371.462C236.859 373.028 236.661 374.684 236.661 376.424H240.661ZM241.133 372.499C241.489 371.201 241.935 370.001 242.469 368.893L238.865 367.158C238.219 368.498 237.691 369.927 237.276 371.441L241.133 372.499ZM242.455 368.92C243.021 367.789 243.643 366.764 244.319 365.842L241.094 363.477C240.274 364.595 239.536 365.814 238.878 367.131L242.455 368.92ZM244.332 365.825C245.044 364.832 245.748 363.948 246.443 363.169L243.458 360.506C242.657 361.405 241.865 362.402 241.082 363.494L244.332 365.825ZM244.712 359.852C244.12 359.923 243.441 360.017 242.679 360.132L243.278 364.087C244.012 363.976 244.648 363.888 245.189 363.823L244.712 359.852ZM242.731 360.125C242 360.216 241.292 360.308 240.606 360.399L241.135 364.364C241.809 364.274 242.506 364.184 243.227 364.094L242.731 360.125ZM240.606 360.399C239.935 360.489 239.4 360.554 238.995 360.597L239.414 364.575C239.87 364.527 240.446 364.456 241.135 364.364L240.606 360.399ZM238.922 360.606C238.604 360.651 238.287 360.696 237.97 360.742L238.535 364.702C238.853 364.656 239.17 364.611 239.487 364.566L238.922 360.606ZM237.949 360.745C237.62 360.795 237.273 360.858 236.908 360.931L237.693 364.853C238.008 364.79 238.296 364.739 238.557 364.698L237.949 360.745ZM239.296 362.749L239.092 359.893L235.102 360.178L235.306 363.034L239.296 362.749ZM259.598 357.339C259.796 357.662 260.021 358.088 260.271 358.63L263.903 356.954C263.609 356.317 263.312 355.745 263.011 355.253L259.598 357.339ZM260.312 358.714C260.597 359.262 260.871 359.81 261.134 360.357L264.74 358.626C264.458 358.04 264.165 357.454 263.861 356.869L260.312 358.714ZM261.162 360.414C261.43 360.929 261.634 361.379 261.782 361.768L265.52 360.344C265.305 359.78 265.033 359.188 264.711 358.569L261.162 360.414ZM262.933 359.189L261.165 359.869L262.601 363.602L264.369 362.922L262.933 359.189ZM263.745 361.007C263.525 360.443 263.271 359.851 262.985 359.232L259.353 360.908C259.611 361.467 259.833 361.985 260.02 362.464L263.745 361.007ZM263.011 359.29C262.746 358.664 262.467 358.059 262.175 357.475L258.598 359.264C258.85 359.768 259.093 360.297 259.327 360.849L263.011 359.29ZM262.19 357.504C261.901 356.903 261.616 356.357 261.335 355.872L257.874 357.876C258.092 358.252 258.328 358.703 258.584 359.235L262.19 357.504ZM260.248 358.767L261.948 358.189L260.661 354.402L258.961 354.98L260.248 358.767ZM263.08 356.035C263.415 356.567 263.799 357.269 264.233 358.159L267.828 356.405C267.355 355.436 266.901 354.597 266.465 353.904L263.08 356.035ZM264.242 358.176C264.684 359.06 265.054 359.844 265.354 360.531L269.019 358.928C268.685 358.164 268.284 357.316 267.819 356.387L264.242 358.176ZM266.5 357.851L264.732 358.497L266.105 362.254L267.873 361.608L266.5 357.851ZM267.268 359.614C266.938 358.814 266.564 357.961 266.147 357.056L262.515 358.732C262.913 359.595 263.264 360.396 263.569 361.137L267.268 359.614ZM266.147 357.056C265.71 356.11 265.259 355.265 264.789 354.534L261.424 356.697C261.77 357.235 262.135 357.909 262.515 358.732L266.147 357.056ZM263.83 357.48L265.496 356.834L264.05 353.105L262.384 353.751L263.83 357.48Z" fill="#443627" mask="url(#path-23-outside-1_84_130)"/>
<mask id="path-25-outside-2_84_130" maskUnits="userSpaceOnUse" x="236.337" y="312.048" width="30" height="33" fill="black">
<rect fill="white" x="236.337" y="312.048" width="30" height="33"/>
<path d="M249.719 314.426C249.583 314.879 249.47 315.355 249.379 315.854C249.289 316.353 249.198 316.829 249.107 317.282C248.994 317.826 248.858 318.506 248.699 319.322C248.563 320.115 248.382 320.988 248.155 321.94C247.951 322.869 247.736 323.81 247.509 324.762C247.283 325.714 247.045 326.621 246.795 327.482C246.569 328.321 246.331 329.057 246.081 329.692C247.577 328.649 249.096 327.913 250.637 327.482C252.201 327.029 253.879 326.802 255.669 326.802C257.483 326.802 259.024 327.085 260.293 327.652C261.563 328.219 262.537 329.012 263.217 330.032C263.897 331.029 264.237 332.197 264.237 333.534C264.237 335.302 263.807 336.798 262.945 338.022C262.084 339.246 260.871 340.209 259.307 340.912C257.743 341.615 255.885 342.057 253.731 342.238C251.601 342.442 249.232 342.408 246.625 342.136L245.945 339.45C247.917 339.722 249.821 339.835 251.657 339.79C253.516 339.722 255.171 339.473 256.621 339.042C258.095 338.589 259.262 337.92 260.123 337.036C261.007 336.152 261.449 335.007 261.449 333.602C261.449 332.333 260.928 331.267 259.885 330.406C258.865 329.522 257.358 329.08 255.363 329.08C253.346 329.08 251.453 329.431 249.685 330.134C247.917 330.814 246.467 331.834 245.333 333.194C245.129 333.443 244.937 333.693 244.755 333.942C244.597 334.169 244.438 334.441 244.279 334.758L241.729 333.84C242.387 332.571 242.987 331.154 243.531 329.59C244.075 328.003 244.551 326.405 244.959 324.796C245.367 323.187 245.707 321.713 245.979 320.376C246.251 319.016 246.444 317.917 246.557 317.078C246.625 316.534 246.671 316.047 246.693 315.616C246.716 315.185 246.716 314.732 246.693 314.256L249.719 314.426ZM239.145 318.744C240.052 318.903 241.095 319.039 242.273 319.152C243.475 319.265 244.585 319.322 245.605 319.322C246.693 319.322 247.906 319.288 249.243 319.22C250.581 319.152 251.975 319.05 253.425 318.914C254.876 318.778 256.327 318.608 257.777 318.404C259.251 318.177 260.656 317.917 261.993 317.622L262.027 320.24C260.826 320.444 259.511 320.637 258.083 320.818C256.678 320.999 255.239 321.158 253.765 321.294C252.292 321.43 250.853 321.543 249.447 321.634C248.065 321.702 246.795 321.736 245.639 321.736C244.483 321.736 243.361 321.702 242.273 321.634C241.208 321.566 240.177 321.487 239.179 321.396L239.145 318.744Z"/>
</mask>
<path d="M249.719 314.426C249.583 314.879 249.47 315.355 249.379 315.854C249.289 316.353 249.198 316.829 249.107 317.282C248.994 317.826 248.858 318.506 248.699 319.322C248.563 320.115 248.382 320.988 248.155 321.94C247.951 322.869 247.736 323.81 247.509 324.762C247.283 325.714 247.045 326.621 246.795 327.482C246.569 328.321 246.331 329.057 246.081 329.692C247.577 328.649 249.096 327.913 250.637 327.482C252.201 327.029 253.879 326.802 255.669 326.802C257.483 326.802 259.024 327.085 260.293 327.652C261.563 328.219 262.537 329.012 263.217 330.032C263.897 331.029 264.237 332.197 264.237 333.534C264.237 335.302 263.807 336.798 262.945 338.022C262.084 339.246 260.871 340.209 259.307 340.912C257.743 341.615 255.885 342.057 253.731 342.238C251.601 342.442 249.232 342.408 246.625 342.136L245.945 339.45C247.917 339.722 249.821 339.835 251.657 339.79C253.516 339.722 255.171 339.473 256.621 339.042C258.095 338.589 259.262 337.92 260.123 337.036C261.007 336.152 261.449 335.007 261.449 333.602C261.449 332.333 260.928 331.267 259.885 330.406C258.865 329.522 257.358 329.08 255.363 329.08C253.346 329.08 251.453 329.431 249.685 330.134C247.917 330.814 246.467 331.834 245.333 333.194C245.129 333.443 244.937 333.693 244.755 333.942C244.597 334.169 244.438 334.441 244.279 334.758L241.729 333.84C242.387 332.571 242.987 331.154 243.531 329.59C244.075 328.003 244.551 326.405 244.959 324.796C245.367 323.187 245.707 321.713 245.979 320.376C246.251 319.016 246.444 317.917 246.557 317.078C246.625 316.534 246.671 316.047 246.693 315.616C246.716 315.185 246.716 314.732 246.693 314.256L249.719 314.426ZM239.145 318.744C240.052 318.903 241.095 319.039 242.273 319.152C243.475 319.265 244.585 319.322 245.605 319.322C246.693 319.322 247.906 319.288 249.243 319.22C250.581 319.152 251.975 319.05 253.425 318.914C254.876 318.778 256.327 318.608 257.777 318.404C259.251 318.177 260.656 317.917 261.993 317.622L262.027 320.24C260.826 320.444 259.511 320.637 258.083 320.818C256.678 320.999 255.239 321.158 253.765 321.294C252.292 321.43 250.853 321.543 249.447 321.634C248.065 321.702 246.795 321.736 245.639 321.736C244.483 321.736 243.361 321.702 242.273 321.634C241.208 321.566 240.177 321.487 239.179 321.396L239.145 318.744Z" fill="#B78933"/>
<path d="M249.719 314.426L251.635 315.001L252.364 312.571L249.832 312.429L249.719 314.426ZM249.379 315.854L247.412 315.496V315.496L249.379 315.854ZM249.107 317.282L251.065 317.69L251.067 317.682L251.069 317.674L249.107 317.282ZM248.699 319.322L246.736 318.94L246.732 318.962L246.728 318.984L248.699 319.322ZM248.155 321.94L246.21 321.477L246.206 321.494L246.202 321.511L248.155 321.94ZM247.509 324.762L245.564 324.299V324.299L247.509 324.762ZM246.795 327.482L244.874 326.926L244.869 326.943L244.865 326.96L246.795 327.482ZM246.081 329.692L244.22 328.961L241.804 335.111L247.225 331.333L246.081 329.692ZM250.637 327.482L251.176 329.408L251.185 329.405L251.194 329.403L250.637 327.482ZM263.217 330.032L261.553 331.141L261.559 331.15L261.565 331.159L263.217 330.032ZM262.945 338.022L264.581 339.173L262.945 338.022ZM259.307 340.912L258.488 339.088L259.307 340.912ZM253.731 342.238L253.564 340.245L253.552 340.246L253.541 340.247L253.731 342.238ZM246.625 342.136L244.687 342.627L245.029 343.98L246.418 344.125L246.625 342.136ZM245.945 339.45L246.219 337.469L243.278 337.063L244.007 339.941L245.945 339.45ZM251.657 339.79L251.707 341.789L251.719 341.789L251.731 341.789L251.657 339.79ZM256.621 339.042L257.191 340.959L257.2 340.956L257.21 340.953L256.621 339.042ZM260.123 337.036L258.709 335.622L258.7 335.631L258.691 335.64L260.123 337.036ZM259.885 330.406L258.576 331.917L258.593 331.933L258.612 331.948L259.885 330.406ZM249.685 330.134L250.403 332.001L250.414 331.997L250.424 331.992L249.685 330.134ZM245.333 333.194L243.797 331.913L243.791 331.92L243.785 331.927L245.333 333.194ZM244.755 333.942L243.138 332.766L243.127 332.78L243.117 332.795L244.755 333.942ZM244.279 334.758L243.602 336.64L245.274 337.241L246.068 335.652L244.279 334.758ZM241.729 333.84L239.953 332.92L238.903 334.948L241.052 335.722L241.729 333.84ZM243.531 329.59L245.42 330.247L245.423 330.239L243.531 329.59ZM244.959 324.796L243.021 324.304L244.959 324.796ZM245.979 320.376L247.939 320.774L247.941 320.768L245.979 320.376ZM246.557 317.078L248.539 317.346L248.541 317.336L248.542 317.326L246.557 317.078ZM246.693 315.616L248.691 315.721V315.721L246.693 315.616ZM246.693 314.256L246.806 312.259L244.59 312.135L244.696 314.351L246.693 314.256ZM239.145 318.744L239.49 316.774L237.115 316.358L237.146 318.769L239.145 318.744ZM242.273 319.152L242.082 321.143L242.086 321.143L242.273 319.152ZM249.243 319.22L249.345 321.217H249.345L249.243 319.22ZM253.425 318.914L253.239 316.923L253.425 318.914ZM257.777 318.404L258.056 320.384L258.069 320.383L258.082 320.381L257.777 318.404ZM261.993 317.622L263.993 317.596L263.961 315.14L261.563 315.669L261.993 317.622ZM262.027 320.24L262.362 322.212L264.049 321.925L264.027 320.214L262.027 320.24ZM258.083 320.818L257.831 318.834L257.827 318.834L258.083 320.818ZM253.765 321.294L253.949 323.285L253.765 321.294ZM249.447 321.634L249.546 323.631L249.561 323.631L249.576 323.63L249.447 321.634ZM242.273 321.634L242.146 323.63L242.149 323.63L242.273 321.634ZM239.179 321.396L237.18 321.421L237.203 323.224L238.998 323.388L239.179 321.396ZM247.804 313.851C247.645 314.381 247.515 314.929 247.412 315.496L251.347 316.212C251.425 315.781 251.522 315.378 251.635 315.001L247.804 313.851ZM247.412 315.496C247.323 315.984 247.234 316.449 247.146 316.89L251.069 317.674C251.162 317.208 251.255 316.721 251.347 316.212L247.412 315.496ZM247.149 316.874C247.034 317.43 246.896 318.119 246.736 318.94L250.663 319.704C250.82 318.893 250.954 318.222 251.065 317.69L247.149 316.874ZM246.728 318.984C246.601 319.727 246.429 320.558 246.21 321.477L250.101 322.403C250.336 321.418 250.526 320.503 250.671 319.66L246.728 318.984ZM246.202 321.511C246.001 322.429 245.788 323.358 245.564 324.299L249.455 325.225C249.684 324.262 249.902 323.31 250.109 322.369L246.202 321.511ZM245.564 324.299C245.344 325.222 245.114 326.098 244.874 326.926L248.717 328.038C248.976 327.143 249.222 326.205 249.455 325.225L245.564 324.299ZM244.865 326.96C244.652 327.746 244.436 328.41 244.22 328.961L247.943 330.423C248.225 329.704 248.485 328.895 248.726 328.004L244.865 326.96ZM247.225 331.333C248.562 330.401 249.879 329.77 251.176 329.408L250.099 325.556C248.314 326.055 246.593 326.898 244.938 328.051L247.225 331.333ZM251.194 329.403C252.56 329.007 254.049 328.802 255.669 328.802V324.802C253.709 324.802 251.843 325.05 250.081 325.561L251.194 329.403ZM255.669 328.802C257.284 328.802 258.531 329.055 259.478 329.478L261.109 325.826C259.517 325.115 257.682 324.802 255.669 324.802V328.802ZM259.478 329.478C260.45 329.912 261.11 330.476 261.553 331.141L264.882 328.922C263.965 327.548 262.676 326.525 261.109 325.826L259.478 329.478ZM261.565 331.159C261.994 331.788 262.237 332.553 262.237 333.534H266.237C266.237 331.84 265.8 330.27 264.87 328.905L261.565 331.159ZM262.237 333.534C262.237 334.966 261.893 336.041 261.31 336.871L264.581 339.173C265.72 337.554 266.237 335.637 266.237 333.534H262.237ZM261.31 336.871C260.684 337.761 259.773 338.51 258.488 339.088L260.127 342.736C261.97 341.908 263.484 340.731 264.581 339.173L261.31 336.871ZM258.488 339.088C257.176 339.677 255.548 340.078 253.564 340.245L253.899 344.231C256.222 344.035 258.311 343.552 260.127 342.736L258.488 339.088ZM253.541 340.247C251.568 340.436 249.336 340.408 246.833 340.147L246.418 344.125C249.129 344.408 251.633 344.448 253.922 344.229L253.541 340.247ZM248.564 341.645L247.884 338.959L244.007 339.941L244.687 342.627L248.564 341.645ZM245.672 341.431C247.742 341.717 249.754 341.837 251.707 341.789L251.608 337.79C249.888 337.833 248.093 337.727 246.219 337.469L245.672 341.431ZM251.731 341.789C253.721 341.716 255.547 341.447 257.191 340.959L256.052 337.125C254.795 337.498 253.312 337.728 251.584 337.791L251.731 341.789ZM257.21 340.953C258.925 340.426 260.409 339.608 261.556 338.432L258.691 335.64C258.115 336.232 257.265 336.751 256.033 337.13L257.21 340.953ZM261.538 338.45C262.845 337.143 263.449 335.466 263.449 333.602H259.449C259.449 334.549 259.17 335.161 258.709 335.622L261.538 338.45ZM263.449 333.602C263.449 331.693 262.627 330.077 261.159 328.864L258.612 331.948C259.229 332.458 259.449 332.972 259.449 333.602H263.449ZM261.195 328.894C259.672 327.574 257.615 327.08 255.363 327.08V331.08C257.101 331.08 258.059 331.469 258.576 331.917L261.195 328.894ZM255.363 327.08C253.109 327.08 250.964 327.474 248.947 328.275L250.424 331.992C251.943 331.389 253.584 331.08 255.363 331.08V327.08ZM248.967 328.267C246.904 329.061 245.164 330.273 243.797 331.913L246.87 334.474C247.77 333.395 248.931 332.567 250.403 332.001L248.967 328.267ZM243.785 331.927C243.559 332.205 243.343 332.484 243.138 332.766L246.373 335.118C246.531 334.901 246.7 334.682 246.881 334.46L243.785 331.927ZM243.117 332.795C242.889 333.121 242.682 333.481 242.491 333.863L246.068 335.652C246.195 335.4 246.305 335.216 246.394 335.089L243.117 332.795ZM244.957 332.876L242.407 331.958L241.052 335.722L243.602 336.64L244.957 332.876ZM243.505 334.76C244.213 333.393 244.85 331.887 245.42 330.247L241.642 328.933C241.125 330.42 240.561 331.748 239.953 332.92L243.505 334.76ZM245.423 330.239C245.985 328.601 246.476 326.95 246.898 325.287L243.021 324.304C242.626 325.86 242.166 327.406 241.64 328.941L245.423 330.239ZM246.898 325.287C247.312 323.654 247.66 322.149 247.939 320.774L244.02 319.977C243.755 321.278 243.423 322.719 243.021 324.304L246.898 325.287ZM247.941 320.768C248.216 319.389 248.418 318.244 248.539 317.346L244.575 316.81C244.47 317.589 244.286 318.642 244.018 319.984L247.941 320.768ZM248.542 317.326C248.614 316.746 248.665 316.21 248.691 315.721L244.696 315.511C244.677 315.883 244.636 316.321 244.573 316.83L248.542 317.326ZM248.691 315.721C248.717 315.217 248.717 314.697 248.691 314.161L244.696 314.351C244.715 314.767 244.715 315.153 244.696 315.511L248.691 315.721ZM246.581 316.253L249.607 316.423L249.832 312.429L246.806 312.259L246.581 316.253ZM238.801 320.714C239.77 320.884 240.866 321.026 242.082 321.143L242.465 317.161C241.324 317.051 240.334 316.921 239.49 316.774L238.801 320.714ZM242.086 321.143C243.338 321.261 244.513 321.322 245.605 321.322V317.322C244.658 317.322 243.611 317.269 242.461 317.161L242.086 321.143ZM245.605 321.322C246.734 321.322 247.981 321.287 249.345 321.217L249.142 317.222C247.831 317.289 246.653 317.322 245.605 317.322V321.322ZM249.345 321.217C250.713 321.148 252.136 321.044 253.612 320.905L253.239 316.923C251.814 317.056 250.448 317.156 249.142 317.222L249.345 321.217ZM253.612 320.905C255.094 320.766 256.575 320.593 258.056 320.384L257.499 316.423C256.079 316.623 254.659 316.789 253.239 316.923L253.612 320.905ZM258.082 320.381C259.594 320.148 261.041 319.88 262.424 319.575L261.563 315.669C260.271 315.953 258.908 316.206 257.473 316.427L258.082 320.381ZM259.994 317.648L260.028 320.266L264.027 320.214L263.993 317.596L259.994 317.648ZM261.693 318.268C260.523 318.467 259.237 318.655 257.831 318.834L258.335 322.802C259.786 322.618 261.129 322.421 262.362 322.212L261.693 318.268ZM257.827 318.834C256.447 319.012 255.032 319.168 253.582 319.302L253.949 323.285C255.446 323.147 256.909 322.986 258.339 322.801L257.827 318.834ZM253.582 319.302C252.126 319.437 250.705 319.549 249.319 319.638L249.576 323.63C251.001 323.538 252.458 323.423 253.949 323.285L253.582 319.302ZM249.349 319.636C247.993 319.703 246.757 319.736 245.639 319.736V323.736C246.834 323.736 248.136 323.701 249.546 323.631L249.349 319.636ZM245.639 319.736C244.523 319.736 243.442 319.703 242.398 319.638L242.149 323.63C243.281 323.701 244.444 323.736 245.639 323.736V319.736ZM242.401 319.638C241.352 319.571 240.339 319.493 239.36 319.404L238.998 323.388C240.015 323.48 241.064 323.561 242.146 323.63L242.401 319.638ZM241.179 321.37L241.145 318.718L237.146 318.769L237.18 321.421L241.179 321.37Z" fill="#493628" mask="url(#path-25-outside-2_84_130)"/>
<path d="M66.28 458.52C66.9733 458.013 67.6 457.4 68.16 456.68C68.72 455.933 69.1867 455.56 69.56 455.56C69.96 455.56 70.16 456.147 70.16 457.32C70.16 458.467 69.8267 459.56 69.16 460.6C68.52 461.613 67.6667 462.467 66.6 463.16C64.4133 464.6 61.8267 465.32 58.84 465.32C55.2133 465.32 52.4 464.413 50.4 462.6C48.4 460.787 47.4 458.267 47.4 455.04C47.4 451.067 48.36 447.293 50.28 443.72C50.92 442.547 51.64 441.467 52.44 440.48C51.8267 439.76 51.3333 439.013 50.96 438.24C50.6133 437.44 50.44 436.84 50.44 436.44C50.44 435.72 50.7067 435.36 51.24 435.36C51.6133 435.387 52.04 435.64 52.52 436.12L53.76 437.32C54.08 437.64 54.4133 437.907 54.76 438.12C57.4 435.88 60.24 434.76 63.28 434.76C66.3467 434.76 68.3333 435.613 69.24 437.32C69.56 437.96 69.72 438.747 69.72 439.68C69.72 441.093 69.1067 442.28 67.88 443.24C66.6533 444.2 65 444.68 62.92 444.68C60.8667 444.68 58.7333 444.253 56.52 443.4C54.6267 446.627 53.68 450 53.68 453.52C53.68 458.4 55.6267 460.84 59.52 460.84C61.92 460.84 64.1733 460.067 66.28 458.52ZM58.44 440.92C59.8 441.373 61.28 441.6 62.88 441.6C64.48 441.6 65.28 441.16 65.28 440.28C65.28 439.24 64.6267 438.72 63.32 438.72C61.5333 438.72 59.9067 439.453 58.44 440.92ZM92.7131 455.56C93.1931 455.56 93.4331 456.173 93.4331 457.4C93.4331 458.067 93.1531 458.88 92.5931 459.84C92.0331 460.773 91.2998 461.64 90.3931 462.44C89.5131 463.213 88.5265 463.853 87.4331 464.36C86.3398 464.867 85.2731 465.12 84.2331 465.12C82.8198 465.12 81.8731 463.88 81.3931 461.4C80.6998 462.547 79.7931 463.493 78.6731 464.24C77.5531 464.96 76.0465 465.32 74.1531 465.32C72.2865 465.32 70.7798 464.733 69.6331 463.56C68.4865 462.387 67.9265 460.96 67.9531 459.28C67.9531 454.747 69.4598 451.173 72.4731 448.56C73.7531 447.467 74.9398 446.747 76.0331 446.4C77.1531 446.053 78.3265 445.88 79.5531 445.88C80.7798 445.88 81.7798 446.093 82.5531 446.52C82.9265 445.747 83.3531 445.36 83.8331 445.36C84.7665 445.36 85.6465 445.773 86.4731 446.6C87.3265 447.4 87.7531 448.16 87.7531 448.88C87.3798 449.76 86.8331 450.813 86.1131 452.04C85.8998 453.267 85.7931 454.987 85.7931 457.2C85.7931 459.413 86.0731 460.52 86.6331 460.52C87.3265 460.52 89.0065 459.133 91.6731 456.36C92.1531 455.827 92.4998 455.56 92.7131 455.56ZM73.8331 457.96C73.8331 460.013 74.5931 461.04 76.1131 461.04C77.7398 461.013 79.0865 460.147 80.1531 458.44C80.5265 457.853 80.8331 457.133 81.0731 456.28C81.0731 453.293 81.3398 450.733 81.8731 448.6C79.7131 449.027 77.8331 450.067 76.2331 451.72C74.6331 453.373 73.8331 455.453 73.8331 457.96ZM92.1944 444.64C92.1944 444.16 92.3677 443.92 92.7144 443.92C93.2477 443.92 93.7944 444.04 94.3544 444.28C94.9144 444.493 95.5144 444.667 96.1544 444.8C98.2877 440.24 100.741 437.267 103.514 435.88C104.474 435.4 105.434 435.16 106.394 435.16C108.181 435.187 109.381 435.613 109.994 436.44C110.634 437.267 110.954 438.333 110.954 439.64C110.928 442.12 109.861 444.08 107.754 445.52C105.648 446.933 103.074 447.72 100.034 447.88C99.261 449.933 98.661 452.12 98.2344 454.44C99.2744 454.04 100.608 453.84 102.234 453.84C102.448 455.52 102.821 456.72 103.354 457.44C103.888 458.16 104.474 458.52 105.114 458.52C105.781 458.52 106.328 458.36 106.754 458.04C107.208 457.72 107.594 457.36 107.914 456.96C108.261 456.56 108.541 456.2 108.754 455.88C108.994 455.56 109.221 455.4 109.434 455.4C109.888 455.4 110.114 455.8 110.114 456.6C110.114 458.2 109.714 459.533 108.914 460.6C108.114 461.64 106.888 462.16 105.234 462.16C102.648 462.16 100.808 461.48 99.7144 460.12C100.301 465.987 100.594 469.48 100.594 470.6C100.594 472.6 99.9677 474.027 98.7144 474.88C97.6744 475.6 96.341 475.96 94.7144 475.96C93.1144 475.96 91.9944 475.587 91.3544 474.84C90.741 474.12 90.4344 473.253 90.4344 472.24C90.4344 465.813 91.3544 459.347 93.1944 452.84C93.781 450.76 94.4477 448.813 95.1944 447C93.1944 446.12 92.1944 445.333 92.1944 444.64ZM96.1944 472.88C96.5144 472.88 96.8077 472.627 97.0744 472.12C97.341 471.64 97.4744 471.12 97.4744 470.56C97.4744 468.72 97.221 465.893 96.7144 462.08C96.0477 464.827 95.5944 467.56 95.3544 470.28C95.301 470.867 95.2744 471.227 95.2744 471.36C95.2744 472.373 95.581 472.88 96.1944 472.88ZM106.074 439.12C105.541 439.12 104.808 439.627 103.874 440.64C102.968 441.653 102.034 443.2 101.074 445.28C103.021 444.427 104.301 443.773 104.914 443.32C106.168 442.44 106.794 441.387 106.794 440.16C106.794 439.467 106.554 439.12 106.074 439.12ZM117.434 460.64C119.514 460.64 121.527 459.813 123.474 458.16C124.194 457.547 124.781 456.987 125.234 456.48C125.687 455.947 126.034 455.68 126.274 455.68C126.647 455.68 126.834 456.053 126.834 456.8C126.834 457.547 126.634 458.387 126.234 459.32C125.834 460.227 125.167 461.12 124.234 462C121.941 464.16 118.794 465.24 114.794 465.24C111.621 465.24 109.461 464.093 108.314 461.8C107.914 461 107.714 459.853 107.714 458.36C107.714 456.867 108.007 455.32 108.594 453.72C109.181 452.093 109.954 450.693 110.914 449.52C111.901 448.347 113.034 447.44 114.314 446.8C115.594 446.133 116.954 445.8 118.394 445.8C119.861 445.8 120.981 446.16 121.754 446.88C122.554 447.6 122.954 448.533 122.954 449.68C122.954 450.827 122.661 451.773 122.074 452.52C121.514 453.24 120.781 453.853 119.874 454.36C118.967 454.84 117.954 455.28 116.834 455.68C115.741 456.053 114.661 456.48 113.594 456.96V457.96C113.621 458.92 114.021 459.6 114.794 460C115.567 460.4 116.447 460.613 117.434 460.64ZM127.114 433.36C128.367 433.36 128.994 433.573 128.994 434C128.994 434.293 128.167 435.72 126.514 438.28C124.487 441.427 121.821 443 118.514 443C117.447 443 116.914 442.747 116.914 442.24C116.914 441.787 117.314 441.44 118.114 441.2C118.274 441.147 118.594 441.067 119.074 440.96C119.554 440.853 120.087 440.56 120.674 440.08C121.287 439.573 121.807 439 122.234 438.36C122.687 437.72 123.074 437.04 123.394 436.32C123.741 435.6 124.087 434.92 124.434 434.28C124.594 433.96 124.941 433.733 125.474 433.6C126.034 433.44 126.581 433.36 127.114 433.36ZM116.754 449.36C115.367 449.36 114.407 450.973 113.874 454.2C114.434 453.827 114.954 453.493 115.434 453.2C115.941 452.907 116.381 452.627 116.754 452.36C117.554 451.773 117.967 451.107 117.994 450.36C117.994 449.693 117.581 449.36 116.754 449.36ZM159.648 445.56C160.448 445.56 161.168 445.747 161.808 446.12C162.448 446.493 162.955 447 163.328 447.64C163.702 448.28 163.888 449 163.888 449.8C163.888 450.573 163.702 451.293 163.328 451.96C162.955 452.6 162.448 453.107 161.808 453.48C161.168 453.853 160.448 454.04 159.648 454.04C158.875 454.04 158.155 453.853 157.488 453.48C156.848 453.107 156.342 452.6 155.968 451.96C155.595 451.293 155.408 450.573 155.408 449.8C155.408 449 155.595 448.28 155.968 447.64C156.342 447 156.848 446.493 157.488 446.12C158.155 445.747 158.875 445.56 159.648 445.56ZM185.488 451.84C183.942 452.053 182.662 452.16 181.648 452.16C181.302 452.16 181.128 452.027 181.128 451.76C181.128 451.147 181.542 450.507 182.368 449.84C183.222 449.147 184.595 448.547 186.488 448.04C187.342 445 188.315 442.213 189.408 439.68C186.742 439.813 184.555 440.693 182.848 442.32C182.422 442.747 182.075 443.08 181.808 443.32C181.542 443.56 181.302 443.68 181.088 443.68C180.902 443.68 180.715 443.52 180.528 443.2C180.342 442.88 180.248 442.453 180.248 441.92C180.275 439.867 181.662 438.2 184.408 436.92C187.155 435.64 190.542 435.013 194.568 435.04L206.568 435.24C207.288 435.24 207.648 435.52 207.648 436.08C207.648 436.24 207.542 436.533 207.328 436.96C207.115 437.36 206.928 437.8 206.768 438.28C206.422 439.24 205.675 439.72 204.528 439.72H203.248L197.928 439.68H194.848C194.635 441.2 193.995 443.68 192.928 447.12L200.248 447.24C200.675 447.24 200.888 447.493 200.888 448C200.888 448.16 200.822 448.44 200.688 448.84C200.555 449.24 200.435 449.653 200.328 450.08C200.115 450.96 199.662 451.4 198.968 451.4L192.888 451.12H192.368C192.208 451.12 192.022 451.133 191.808 451.16C190.422 456.253 189.728 460.28 189.728 463.24C189.728 464.813 188.195 465.6 185.128 465.6C184.462 465.6 184.062 465.267 183.928 464.6C183.822 463.907 183.768 463 183.768 461.88C183.768 459.48 184.342 456.133 185.488 451.84ZM218.219 461.6C216.113 464.08 213.579 465.32 210.619 465.32C207.686 465.32 205.486 464.573 204.019 463.08C202.553 461.56 201.833 459.68 201.859 457.44C201.833 454.267 202.833 451.533 204.859 449.24C206.886 446.947 209.539 445.8 212.819 445.8C214.313 445.8 215.513 445.987 216.419 446.36C217.993 447 218.779 447.6 218.779 448.16C218.779 448.587 217.673 448.813 215.459 448.84C213.273 448.84 211.433 449.6 209.939 451.12C208.473 452.613 207.739 454.507 207.739 456.8C207.739 458 208.086 459.013 208.779 459.84C209.499 460.64 210.499 461.04 211.779 461.04C213.086 461.04 214.166 460.773 215.019 460.24C213.126 458.96 212.179 457.107 212.179 454.68C212.153 453.4 212.606 452.24 213.539 451.2C214.499 450.133 215.713 449.6 217.179 449.6C218.673 449.573 219.739 449.973 220.379 450.8C221.019 451.627 221.339 452.693 221.339 454C221.339 455.28 221.033 456.64 220.419 458.08H220.659C221.833 458.053 222.846 457.64 223.699 456.84C224.019 456.52 224.286 456.24 224.499 456C224.739 455.76 224.979 455.64 225.219 455.64C225.593 455.64 225.779 456.08 225.779 456.96C225.779 458.587 225.299 459.813 224.339 460.64C223.379 461.44 222.313 461.84 221.139 461.84C219.993 461.84 219.019 461.76 218.219 461.6ZM217.859 456.96C218.313 456 218.539 455.067 218.539 454.16C218.539 453.253 218.246 452.8 217.659 452.8C217.419 452.8 217.219 452.973 217.059 453.32C216.899 453.667 216.819 454 216.819 454.32C216.819 455.387 217.166 456.267 217.859 456.96ZM224.538 444.64C224.538 444.16 224.711 443.92 225.058 443.92C225.591 443.92 226.138 444.04 226.698 444.28C227.258 444.493 227.858 444.667 228.498 444.8C230.631 440.24 233.085 437.267 235.858 435.88C236.818 435.4 237.778 435.16 238.738 435.16C240.525 435.187 241.725 435.613 242.338 436.44C242.978 437.267 243.298 438.333 243.298 439.64C243.271 442.12 242.205 444.08 240.098 445.52C237.991 446.933 235.418 447.72 232.378 447.88C231.605 449.933 231.005 452.12 230.578 454.44C231.618 454.04 232.951 453.84 234.578 453.84C234.791 455.52 235.165 456.72 235.698 457.44C236.231 458.16 236.818 458.52 237.458 458.52C238.125 458.52 238.671 458.36 239.098 458.04C239.551 457.72 239.938 457.36 240.258 456.96C240.605 456.56 240.885 456.2 241.098 455.88C241.338 455.56 241.565 455.4 241.778 455.4C242.231 455.4 242.458 455.8 242.458 456.6C242.458 458.2 242.058 459.533 241.258 460.6C240.458 461.64 239.231 462.16 237.578 462.16C234.991 462.16 233.151 461.48 232.058 460.12C232.645 465.987 232.938 469.48 232.938 470.6C232.938 472.6 232.311 474.027 231.058 474.88C230.018 475.6 228.685 475.96 227.058 475.96C225.458 475.96 224.338 475.587 223.698 474.84C223.085 474.12 222.778 473.253 222.778 472.24C222.778 465.813 223.698 459.347 225.538 452.84C226.125 450.76 226.791 448.813 227.538 447C225.538 446.12 224.538 445.333 224.538 444.64ZM228.538 472.88C228.858 472.88 229.151 472.627 229.418 472.12C229.685 471.64 229.818 471.12 229.818 470.56C229.818 468.72 229.565 465.893 229.058 462.08C228.391 464.827 227.938 467.56 227.698 470.28C227.645 470.867 227.618 471.227 227.618 471.36C227.618 472.373 227.925 472.88 228.538 472.88ZM238.418 439.12C237.885 439.12 237.151 439.627 236.218 440.64C235.311 441.653 234.378 443.2 233.418 445.28C235.365 444.427 236.645 443.773 237.258 443.32C238.511 442.44 239.138 441.387 239.138 440.16C239.138 439.467 238.898 439.12 238.418 439.12ZM252.898 448.12C252.898 446.333 254.284 445.44 257.058 445.44C257.751 445.44 258.178 445.667 258.338 446.12C258.524 446.573 258.618 447.267 258.618 448.2C258.618 449.507 258.324 451.533 257.738 454.28C257.151 457.027 256.871 458.88 256.898 459.84C256.898 460.293 257.044 460.52 257.338 460.52C257.738 460.52 258.231 460.267 258.818 459.76C259.404 459.253 259.991 458.707 260.578 458.12C261.164 457.507 261.698 456.947 262.178 456.44C262.684 455.933 263.031 455.68 263.218 455.68C263.591 455.68 263.778 456.133 263.778 457.04C263.778 458.907 262.858 460.707 261.018 462.44C257.924 464.253 255.964 465.16 255.138 465.16C255.058 465.16 254.991 465.147 254.938 465.12C253.924 465.12 253.204 464.787 252.778 464.12C252.378 463.453 252.124 462.613 252.018 461.6C251.484 462.587 250.751 463.44 249.818 464.16C248.884 464.853 247.818 465.2 246.618 465.2C244.511 465.2 242.884 464.8 241.738 464C240.618 463.2 240.058 462.013 240.058 460.44C240.058 459.747 240.151 459.107 240.338 458.52C240.551 457.933 240.884 457.213 241.338 456.36L242.498 446.52C243.324 445.88 244.511 445.56 246.058 445.56C247.284 445.56 247.978 446.36 248.138 447.96C248.271 449.267 248.204 450.44 247.938 451.48C247.698 452.493 247.364 453.787 246.938 455.36C246.511 456.907 246.298 458.28 246.298 459.48C246.298 460.44 246.898 460.92 248.098 460.92C249.404 460.92 250.538 459.773 251.498 457.48C252.244 455.72 252.751 453.76 253.018 451.6C252.991 451.387 252.964 451.12 252.938 450.8C252.938 450.453 252.924 450.12 252.898 449.8C252.898 449.48 252.898 449.16 252.898 448.84V448.12ZM267.626 458.28L267.866 463.16C267.866 463.8 267.533 464.373 266.866 464.88C266.199 465.387 265.293 465.64 264.146 465.64C263.479 465.64 263.013 465.293 262.746 464.6C262.506 463.907 262.386 462.893 262.386 461.56C262.386 458.76 262.519 456.573 262.786 455C263.079 453.4 263.639 451.787 264.466 450.16C263.239 448.987 262.626 447.973 262.626 447.12C262.626 445.333 263.586 444.44 265.506 444.44C266.493 444.44 267.359 444.96 268.106 446C268.639 446.72 269.026 447.56 269.266 448.52C269.639 448.653 270.106 448.72 270.666 448.72C271.439 448.72 272.333 448.467 273.346 447.96L274.386 447.44C274.706 447.28 274.986 447.2 275.226 447.2C275.999 447.2 276.773 448.333 277.546 450.6C277.306 451.64 277.039 452.64 276.746 453.6C276.479 454.56 276.159 455.72 275.786 457.08C275.413 458.44 275.213 459.36 275.186 459.84C275.186 460.293 275.333 460.52 275.626 460.52C276.026 460.52 276.519 460.267 277.106 459.76C277.693 459.253 278.279 458.707 278.866 458.12C279.453 457.507 279.986 456.947 280.466 456.44C280.973 455.933 281.319 455.68 281.506 455.68C281.879 455.68 282.066 456.133 282.066 457.04C282.066 458.88 281.253 460.693 279.626 462.48C278.026 464.267 276.186 465.147 274.106 465.12C272.879 465.12 271.959 464.627 271.346 463.64C270.733 462.653 270.413 461.453 270.386 460.04C270.386 457.24 271.013 454.587 272.266 452.08C271.679 452.32 271.013 452.44 270.266 452.44C269.546 452.44 269.026 452.413 268.706 452.36C268.466 453.373 268.226 454.4 267.986 455.44C267.746 456.453 267.626 457.4 267.626 458.28ZM304.627 455.56C305.107 455.56 305.347 456.173 305.347 457.4C305.347 458.067 305.067 458.88 304.507 459.84C303.947 460.773 303.214 461.64 302.307 462.44C301.427 463.213 300.441 463.853 299.347 464.36C298.254 464.867 297.187 465.12 296.147 465.12C294.734 465.12 293.787 463.88 293.307 461.4C292.614 462.547 291.707 463.493 290.587 464.24C289.467 464.96 287.961 465.32 286.067 465.32C284.201 465.32 282.694 464.733 281.547 463.56C280.401 462.387 279.841 460.96 279.867 459.28C279.867 454.747 281.374 451.173 284.387 448.56C285.667 447.467 286.854 446.747 287.947 446.4C289.067 446.053 290.241 445.88 291.467 445.88C292.694 445.88 293.694 446.093 294.467 446.52C294.841 445.747 295.267 445.36 295.747 445.36C296.681 445.36 297.561 445.773 298.387 446.6C299.241 447.4 299.667 448.16 299.667 448.88C299.294 449.76 298.747 450.813 298.027 452.04C297.814 453.267 297.707 454.987 297.707 457.2C297.707 459.413 297.987 460.52 298.547 460.52C299.241 460.52 300.921 459.133 303.587 456.36C304.067 455.827 304.414 455.56 304.627 455.56ZM285.747 457.96C285.747 460.013 286.507 461.04 288.027 461.04C289.654 461.013 291.001 460.147 292.067 458.44C292.441 457.853 292.747 457.133 292.987 456.28C292.987 453.293 293.254 450.733 293.787 448.6C291.627 449.027 289.747 450.067 288.147 451.72C286.547 453.373 285.747 455.453 285.747 457.96ZM322.148 445.56C322.948 445.56 323.668 445.747 324.308 446.12C324.948 446.493 325.455 447 325.828 447.64C326.202 448.28 326.388 449 326.388 449.8C326.388 450.573 326.202 451.293 325.828 451.96C325.455 452.6 324.948 453.107 324.308 453.48C323.668 453.853 322.948 454.04 322.148 454.04C321.375 454.04 320.655 453.853 319.988 453.48C319.348 453.107 318.842 452.6 318.468 451.96C318.095 451.293 317.908 450.573 317.908 449.8C317.908 449 318.095 448.28 318.468 447.64C318.842 447 319.348 446.493 319.988 446.12C320.655 445.747 321.375 445.56 322.148 445.56ZM364.004 451.84C362.457 452.053 361.177 452.16 360.164 452.16C359.817 452.16 359.644 452.027 359.644 451.76C359.644 451.147 360.057 450.507 360.884 449.84C361.737 449.147 363.111 448.547 365.004 448.04C365.857 445 366.831 442.213 367.924 439.68C365.257 439.813 363.071 440.693 361.364 442.32C360.937 442.747 360.591 443.08 360.324 443.32C360.057 443.56 359.817 443.68 359.604 443.68C359.417 443.68 359.231 443.52 359.044 443.2C358.857 442.88 358.764 442.453 358.764 441.92C358.791 439.867 360.177 438.2 362.924 436.92C365.671 435.64 369.057 435.013 373.084 435.04L385.084 435.24C385.804 435.24 386.164 435.52 386.164 436.08C386.164 436.24 386.057 436.533 385.844 436.96C385.631 437.36 385.444 437.8 385.284 438.28C384.937 439.24 384.191 439.72 383.044 439.72H381.764L376.444 439.68H373.364C373.151 441.2 372.511 443.68 371.444 447.12L378.764 447.24C379.191 447.24 379.404 447.493 379.404 448C379.404 448.16 379.337 448.44 379.204 448.84C379.071 449.24 378.951 449.653 378.844 450.08C378.631 450.96 378.177 451.4 377.484 451.4L371.404 451.12H370.884C370.724 451.12 370.537 451.133 370.324 451.16C368.937 456.253 368.244 460.28 368.244 463.24C368.244 464.813 366.711 465.6 363.644 465.6C362.977 465.6 362.577 465.267 362.444 464.6C362.337 463.907 362.284 463 362.284 461.88C362.284 459.48 362.857 456.133 364.004 451.84ZM389.895 460.64C391.975 460.64 393.988 459.813 395.935 458.16C396.655 457.547 397.242 456.987 397.695 456.48C398.148 455.947 398.495 455.68 398.735 455.68C399.108 455.68 399.295 456.053 399.295 456.8C399.295 457.547 399.095 458.387 398.695 459.32C398.295 460.227 397.628 461.12 396.695 462C394.402 464.16 391.255 465.24 387.255 465.24C384.082 465.24 381.922 464.093 380.775 461.8C380.375 461 380.175 459.853 380.175 458.36C380.175 456.867 380.468 455.32 381.055 453.72C381.642 452.093 382.415 450.693 383.375 449.52C384.362 448.347 385.495 447.44 386.775 446.8C388.055 446.133 389.415 445.8 390.855 445.8C392.322 445.8 393.442 446.16 394.215 446.88C395.015 447.6 395.415 448.533 395.415 449.68C395.415 450.827 395.122 451.773 394.535 452.52C393.975 453.24 393.242 453.853 392.335 454.36C391.428 454.84 390.415 455.28 389.295 455.68C388.202 456.053 387.122 456.48 386.055 456.96V457.96C386.082 458.92 386.482 459.6 387.255 460C388.028 460.4 388.908 460.613 389.895 460.64ZM389.215 449.36C387.828 449.36 386.868 450.973 386.335 454.2C386.895 453.827 387.415 453.493 387.895 453.2C388.402 452.907 388.842 452.627 389.215 452.36C390.015 451.773 390.428 451.107 390.455 450.36C390.455 449.693 390.042 449.36 389.215 449.36ZM406.214 465.12C402.4 465.147 399.8 463.72 398.414 460.84C397.934 459.827 397.694 458.56 397.694 457.04C397.694 455.493 397.827 453.853 398.094 452.12C398.627 448.653 399.654 445.453 401.174 442.52C401.947 441.027 402.814 439.747 403.774 438.68C405.88 436.333 408.227 435.173 410.814 435.2C411.96 435.2 412.854 435.52 413.494 436.16C414.16 436.773 414.494 437.667 414.494 438.84C414.494 440.013 414.147 441.2 413.454 442.4C412.76 443.573 411.867 444.8 410.774 446.08C409.707 447.333 408.52 448.653 407.214 450.04C405.907 451.427 404.627 452.933 403.374 454.56V456.16C403.374 457.653 403.694 458.747 404.334 459.44C404.974 460.133 405.72 460.48 406.574 460.48C408.867 460.48 410.894 459.347 412.654 457.08C413.374 456.147 413.92 455.68 414.294 455.68C414.667 455.68 414.854 456.133 414.854 457.04C414.854 457.947 414.6 458.88 414.094 459.84C413.614 460.773 412.974 461.64 412.174 462.44C411.374 463.213 410.454 463.853 409.414 464.36C408.374 464.867 407.307 465.12 406.214 465.12ZM408.374 443.64C408.934 442.947 409.374 442.32 409.694 441.76C410.014 441.2 410.174 440.627 410.174 440.04C410.174 439.427 409.96 439.12 409.534 439.12C408.6 439.12 407.56 440.08 406.414 442C405.294 443.92 404.454 446.44 403.894 449.56C404.8 448.173 405.627 447.013 406.374 446.08C407.147 445.147 407.814 444.333 408.374 443.64ZM417.289 465.12C414.622 465.12 413.289 462.627 413.289 457.64C413.289 454.92 413.622 452.453 414.289 450.24C415.329 446.827 416.502 445.12 417.809 445.12C418.582 445.12 419.196 445.64 419.649 446.68C420.022 447.48 420.196 448.267 420.169 449.04C420.169 450.107 419.849 451.987 419.209 454.68C418.596 457.027 418.289 458.48 418.289 459.04C418.289 459.6 418.422 459.987 418.689 460.2C418.982 460.413 419.316 460.52 419.689 460.52C420.089 460.52 420.582 460.267 421.169 459.76C421.756 459.253 422.342 458.707 422.929 458.12C423.516 457.507 424.049 456.947 424.529 456.44C425.036 455.933 425.382 455.68 425.569 455.68C425.942 455.68 426.129 456.133 426.129 457.04C426.129 458.907 425.182 460.733 423.289 462.52C421.422 464.28 419.422 465.147 417.289 465.12ZM418.929 441.88C418.209 440.813 417.849 439.667 417.849 438.44C417.849 437.213 418.036 436.2 418.409 435.4C418.809 434.573 419.182 433.973 419.529 433.6C419.876 433.2 420.276 433 420.729 433C421.476 433 422.156 433.56 422.769 434.68C423.382 435.773 423.689 436.693 423.689 437.44C423.689 438.827 423.196 439.92 422.209 440.72C421.249 441.493 420.156 441.88 418.929 441.88ZM440.01 455.56C440.49 455.56 440.73 455.973 440.73 456.8C440.73 457.6 440.516 458.467 440.09 459.4C439.69 460.333 439.063 461.24 438.21 462.12C437.383 462.973 436.316 463.707 435.01 464.32C433.703 464.933 432.156 465.24 430.37 465.24C428.61 465.24 427.063 464.72 425.73 463.68C424.396 462.613 423.73 461.093 423.73 459.12C423.73 457.12 424.036 455.32 424.65 453.72C425.29 452.093 426.116 450.693 427.13 449.52C428.17 448.347 429.343 447.44 430.65 446.8C431.956 446.133 433.196 445.8 434.37 445.8C436.423 445.8 437.45 446.613 437.45 448.24C437.45 449.173 437.25 449.92 436.85 450.48C436.476 451.04 436.09 451.32 435.69 451.32C435.156 451.32 434.69 451.133 434.29 450.76C433.89 450.387 433.45 450.2 432.97 450.2C432.49 450.173 432.023 450.4 431.57 450.88C431.143 451.36 430.783 451.973 430.49 452.72C429.903 454.213 429.61 455.96 429.61 457.96C429.636 458.92 430.076 459.64 430.93 460.12C431.516 460.44 432.21 460.613 433.01 460.64C433.81 460.64 434.57 460.373 435.29 459.84C436.036 459.307 436.716 458.733 437.33 458.12C437.943 457.48 438.476 456.893 438.93 456.36C439.41 455.827 439.77 455.56 440.01 455.56ZM443.539 465.12C440.872 465.12 439.539 462.627 439.539 457.64C439.539 454.92 439.872 452.453 440.539 450.24C441.579 446.827 442.752 445.12 444.059 445.12C444.832 445.12 445.446 445.64 445.899 446.68C446.272 447.48 446.446 448.267 446.419 449.04C446.419 450.107 446.099 451.987 445.459 454.68C444.846 457.027 444.539 458.48 444.539 459.04C444.539 459.6 444.672 459.987 444.939 460.2C445.232 460.413 445.566 460.52 445.939 460.52C446.339 460.52 446.832 460.267 447.419 459.76C448.006 459.253 448.592 458.707 449.179 458.12C449.766 457.507 450.299 456.947 450.779 456.44C451.286 455.933 451.632 455.68 451.819 455.68C452.192 455.68 452.379 456.133 452.379 457.04C452.379 458.907 451.432 460.733 449.539 462.52C447.672 464.28 445.672 465.147 443.539 465.12ZM445.179 441.88C444.459 440.813 444.099 439.667 444.099 438.44C444.099 437.213 444.286 436.2 444.659 435.4C445.059 434.573 445.432 433.973 445.779 433.6C446.126 433.2 446.526 433 446.979 433C447.726 433 448.406 433.56 449.019 434.68C449.632 435.773 449.939 436.693 449.939 437.44C449.939 438.827 449.446 439.92 448.459 440.72C447.499 441.493 446.406 441.88 445.179 441.88ZM474.94 455.56C475.42 455.56 475.66 456.173 475.66 457.4C475.66 458.067 475.38 458.88 474.82 459.84C474.26 460.773 473.526 461.64 472.62 462.44C471.74 463.213 470.753 463.853 469.66 464.36C468.566 464.867 467.5 465.12 466.46 465.12C464.993 465.12 464.033 463.92 463.58 461.52C461.98 464.053 459.606 465.32 456.46 465.32C454.54 465.32 453.006 464.733 451.86 463.56C450.713 462.387 450.153 460.96 450.18 459.28C450.18 454.747 451.686 451.173 454.7 448.56C456.78 446.773 458.94 445.88 461.18 445.88C462.193 445.88 462.993 445.96 463.58 446.12L464.5 446.36C465.593 441.213 466.86 437.773 468.3 436.04C468.78 435.453 469.26 435.16 469.74 435.16C470.513 435.16 471.233 435.693 471.9 436.76C472.486 437.64 472.78 438.4 472.78 439.04C472.78 439.68 472.686 440.307 472.5 440.92C472.313 441.533 472.073 442.107 471.78 442.64C471.513 443.147 471.206 443.653 470.86 444.16C470.513 444.64 470.166 445.133 469.82 445.64C469.046 448.52 468.473 451.747 468.1 455.32C467.993 456.333 467.94 457.147 467.94 457.76C467.94 459.6 468.246 460.52 468.86 460.52C469.553 460.52 471.233 459.133 473.9 456.36C474.38 455.827 474.726 455.56 474.94 455.56ZM456.06 457.96C456.06 460.013 456.82 461.04 458.34 461.04C459.246 461.04 460.153 460.693 461.06 460C461.993 459.307 462.713 458.147 463.22 456.52C463.273 454.12 463.553 451.48 464.06 448.6C461.926 449.027 460.06 450.067 458.46 451.72C456.86 453.373 456.06 455.453 456.06 457.96ZM498.221 455.56C498.701 455.56 498.941 456.173 498.941 457.4C498.941 458.067 498.661 458.88 498.101 459.84C497.541 460.773 496.808 461.64 495.901 462.44C495.021 463.213 494.034 463.853 492.941 464.36C491.848 464.867 490.781 465.12 489.741 465.12C488.328 465.12 487.381 463.88 486.901 461.4C486.208 462.547 485.301 463.493 484.181 464.24C483.061 464.96 481.554 465.32 479.661 465.32C477.794 465.32 476.288 464.733 475.141 463.56C473.994 462.387 473.434 460.96 473.461 459.28C473.461 454.747 474.968 451.173 477.981 448.56C479.261 447.467 480.448 446.747 481.541 446.4C482.661 446.053 483.834 445.88 485.061 445.88C486.288 445.88 487.288 446.093 488.061 446.52C488.434 445.747 488.861 445.36 489.341 445.36C490.274 445.36 491.154 445.773 491.981 446.6C492.834 447.4 493.261 448.16 493.261 448.88C492.888 449.76 492.341 450.813 491.621 452.04C491.408 453.267 491.301 454.987 491.301 457.2C491.301 459.413 491.581 460.52 492.141 460.52C492.834 460.52 494.514 459.133 497.181 456.36C497.661 455.827 498.008 455.56 498.221 455.56ZM479.341 457.96C479.341 460.013 480.101 461.04 481.621 461.04C483.248 461.013 484.594 460.147 485.661 458.44C486.034 457.853 486.341 457.133 486.581 456.28C486.581 453.293 486.848 450.733 487.381 448.6C485.221 449.027 483.341 450.067 481.741 451.72C480.141 453.373 479.341 455.453 479.341 457.96ZM521.502 455.56C521.982 455.56 522.222 456.173 522.222 457.4C522.222 458.067 521.942 458.88 521.382 459.84C520.822 460.773 520.089 461.64 519.182 462.44C518.302 463.213 517.316 463.853 516.222 464.36C515.129 464.867 514.062 465.12 513.022 465.12C511.556 465.12 510.596 463.92 510.142 461.52C508.542 464.053 506.169 465.32 503.022 465.32C501.102 465.32 499.569 464.733 498.422 463.56C497.276 462.387 496.716 460.96 496.742 459.28C496.742 454.747 498.249 451.173 501.262 448.56C503.342 446.773 505.502 445.88 507.742 445.88C508.756 445.88 509.556 445.96 510.142 446.12L511.062 446.36C512.156 441.213 513.422 437.773 514.862 436.04C515.342 435.453 515.822 435.16 516.302 435.16C517.076 435.16 517.796 435.693 518.462 436.76C519.049 437.64 519.342 438.4 519.342 439.04C519.342 439.68 519.249 440.307 519.062 440.92C518.876 441.533 518.636 442.107 518.342 442.64C518.076 443.147 517.769 443.653 517.422 444.16C517.076 444.64 516.729 445.133 516.382 445.64C515.609 448.52 515.036 451.747 514.662 455.32C514.556 456.333 514.502 457.147 514.502 457.76C514.502 459.6 514.809 460.52 515.422 460.52C516.116 460.52 517.796 459.133 520.462 456.36C520.942 455.827 521.289 455.56 521.502 455.56ZM502.622 457.96C502.622 460.013 503.382 461.04 504.902 461.04C505.809 461.04 506.716 460.693 507.622 460C508.556 459.307 509.276 458.147 509.782 456.52C509.836 454.12 510.116 451.48 510.622 448.6C508.489 449.027 506.622 450.067 505.022 451.72C503.422 453.373 502.622 455.453 502.622 457.96ZM529.543 460.64C531.623 460.64 533.637 459.813 535.583 458.16C536.303 457.547 536.89 456.987 537.343 456.48C537.797 455.947 538.143 455.68 538.383 455.68C538.757 455.68 538.943 456.053 538.943 456.8C538.943 457.547 538.743 458.387 538.343 459.32C537.943 460.227 537.277 461.12 536.343 462C534.05 464.16 530.903 465.24 526.903 465.24C523.73 465.24 521.57 464.093 520.423 461.8C520.023 461 519.823 459.853 519.823 458.36C519.823 456.867 520.117 455.32 520.703 453.72C521.29 452.093 522.063 450.693 523.023 449.52C524.01 448.347 525.143 447.44 526.423 446.8C527.703 446.133 529.063 445.8 530.503 445.8C531.97 445.8 533.09 446.16 533.863 446.88C534.663 447.6 535.063 448.533 535.063 449.68C535.063 450.827 534.77 451.773 534.183 452.52C533.623 453.24 532.89 453.853 531.983 454.36C531.077 454.84 530.063 455.28 528.943 455.68C527.85 456.053 526.77 456.48 525.703 456.96V457.96C525.73 458.92 526.13 459.6 526.903 460C527.677 460.4 528.557 460.613 529.543 460.64ZM528.863 449.36C527.477 449.36 526.517 450.973 525.983 454.2C526.543 453.827 527.063 453.493 527.543 453.2C528.05 452.907 528.49 452.627 528.863 452.36C529.663 451.773 530.077 451.107 530.103 450.36C530.103 449.693 529.69 449.36 528.863 449.36Z" fill="black"/>
<path d="M123.206 343.503C149.123 386.75 161.116 384.293 182.159 376.304C204.656 365.883 206.15 352.095 181.004 307.637" stroke="black" stroke-width="4"/>
</svg>
