<svg width="50" height="50" viewBox="0 0 50 50" fill="none" xmlns="http://www.w3.org/2000/svg">
<g clip-path="url(#clip0_134_63)">
<path d="M31.25 4.16675H18.75C16.4583 4.16675 14.5833 6.04175 14.5833 8.33341V13.5417H7.29167V15.6251H10.4167V41.6667C10.4167 43.9584 12.2917 45.8334 14.5833 45.8334H35.4167C37.7083 45.8334 39.5833 43.9584 39.5833 41.6667V15.6251H42.7083V13.5417H35.4167V8.33341C35.4167 6.04175 33.5417 4.16675 31.25 4.16675ZM16.6667 8.33341C16.6667 7.18446 17.601 6.25008 18.75 6.25008H31.25C32.399 6.25008 33.3333 7.18446 33.3333 8.33341V13.5417H16.6667V8.33341ZM37.5 41.6667C37.5 42.8157 36.5656 43.7501 35.4167 43.7501H14.5833C13.4344 43.7501 12.5 42.8157 12.5 41.6667V15.6251H37.5V41.6667Z" fill="white"/>
<path d="M21.875 21.875H19.7917V36.4583H21.875V21.875Z" fill="white"/>
<path d="M30.2083 21.875H28.125V36.4583H30.2083V21.875Z" fill="white"/>
</g>
<defs>
<clipPath id="clip0_134_63">
<rect width="50" height="50" fill="white"/>
</clipPath>
</defs>
</svg>
