<svg width="170" height="153" viewBox="0 0 170 153" fill="none" xmlns="http://www.w3.org/2000/svg">
<mask id="mask0_448_37" style="mask-type:alpha" maskUnits="userSpaceOnUse" x="0" y="0" width="170" height="153">
<path d="M0 0H97.8024L170 70L169.5 152.5L0 0Z" fill="#D9D9D9"/>
</mask>
<g mask="url(#mask0_448_37)">
<path d="M8 1.6748L4.0849 1.6748L6.99773 4.2908L165.867 146.971L168.369 149.218L168.369 145.855L168.369 71.3547L168.369 70.7194L167.913 70.2774L97.5439 2.09755L97.1076 1.67484L96.5001 1.67483L8 1.6748Z" fill="#B62929" stroke="white" stroke-width="3"/>
<path d="M79.1708 35.5207C79.4968 35.1589 79.7359 34.7864 79.8883 34.4032C80.0503 34.0094 80.1027 33.5553 80.0454 33.0411C79.9882 32.5269 79.8032 31.8976 79.4905 31.1533C79.1981 30.4079 78.745 29.4986 78.1311 28.4252C77.4163 27.1643 76.777 25.8945 76.2133 24.6157C75.6592 23.3262 75.2685 22.0586 75.0412 20.8129C74.8235 19.5566 74.8464 18.3434 75.1098 17.1735C75.3829 15.993 75.9891 14.8813 76.9286 13.8384C77.8297 12.838 78.8632 12.1401 80.0291 11.7445C81.2046 11.3384 82.4455 11.2128 83.7517 11.3677C85.0782 11.5216 86.4183 11.9384 87.7722 12.6182C89.1357 13.2874 90.4613 14.2019 91.749 15.3619C93.4517 16.8956 94.6838 18.5453 95.4453 20.3107C96.227 22.0751 96.4961 23.8308 96.2526 25.5777C96.0294 27.3236 95.2563 28.9308 93.9334 30.3994L88.3623 25.3811C88.8896 24.7958 89.2321 24.1694 89.39 23.5019C89.5585 22.8441 89.5183 22.1718 89.2695 21.485C89.0207 20.7982 88.5344 20.1289 87.8108 19.477C87.1084 18.8443 86.4219 18.4187 85.7513 18.2002C85.0807 17.9816 84.46 17.9431 83.8893 18.0844C83.3282 18.2151 82.8559 18.4933 82.4725 18.919C82.1562 19.2702 81.9643 19.6757 81.8971 20.1356C81.85 20.5944 81.8972 21.1092 82.0385 21.6799C82.1905 22.2601 82.4266 22.8969 82.7467 23.5901C83.0775 24.2929 83.477 25.0479 83.945 25.855C84.8248 27.3608 85.5231 28.7898 86.0399 30.1421C86.577 31.4933 86.8974 32.7747 87.0012 33.9863C87.1253 35.1968 87.0076 36.3439 86.6484 37.4275C86.2998 38.5207 85.6845 39.5568 84.8026 40.5359C83.8632 41.5788 82.827 42.3225 81.694 42.7671C80.5611 43.2116 79.3628 43.3755 78.0992 43.2589C76.8451 43.1317 75.5619 42.7372 74.2495 42.0756C72.9371 41.4139 71.6318 40.4983 70.3334 39.3287C69.1415 38.2551 68.0998 37.0468 67.2082 35.704C66.3369 34.3601 65.7158 32.9524 65.3449 31.4809C64.9835 29.9988 64.9666 28.5089 65.2941 27.0111C65.6418 25.5123 66.434 24.0765 67.6706 22.7036L73.2896 27.7651C72.676 28.4462 72.2488 29.1024 72.008 29.7336C71.7671 30.3648 71.6928 30.9822 71.7852 31.5859C71.8871 32.1789 72.136 32.7694 72.5318 33.3572C72.9372 33.9344 73.4697 34.5202 74.1295 35.1145C74.8426 35.7568 75.5083 36.1733 76.1267 36.3642C76.7548 36.5444 77.3233 36.5553 77.8322 36.3969C78.3508 36.2278 78.797 35.9358 79.1708 35.5207ZM108.484 39.8627L86.2807 53.1155L80.2627 47.6945L109.739 32.1453L113.554 35.582L108.484 39.8627ZM96.6407 62.4476L107.494 38.9712L111.16 33.4251L115.023 36.9048L102.675 67.8829L96.6407 62.4476ZM104.225 53.5784L100.328 57.9044L88.404 47.1631L92.3008 42.8371L104.225 53.5784ZM123.621 78.9443L119.739 83.2543L107.99 72.6712L111.873 68.3612L123.621 78.9443ZM130.922 51.2265L109.986 74.4686L104.383 69.4215L125.319 46.1794L130.922 51.2265ZM141.979 95.4804L138.097 99.7904L125.709 88.6322L129.592 84.3221L141.979 95.4804ZM148.641 67.1875L127.705 90.4296L122.102 85.3824L143.038 62.1404L148.641 67.1875ZM149.125 84.337L145.372 88.5033L134.581 78.783L138.334 74.6167L149.125 84.337ZM159.081 76.5915L155.184 80.9174L142.749 69.716L146.645 65.3901L159.081 76.5915Z" fill="white"/>
</g>
</svg>
