<svg width="159" height="143" viewBox="0 0 159 143" fill="none" xmlns="http://www.w3.org/2000/svg">
<mask id="mask0_442_42" style="mask-type:alpha" maskUnits="userSpaceOnUse" x="0" y="0" width="159" height="143">
<path d="M56 0H88.5L159 68.5V143L0 0H56Z" fill="#D9D9D9"/>
</mask>
<g mask="url(#mask0_442_42)">
<path d="M157.369 68.9899L157.369 139.491L3.9151 1.67481L87.8926 1.67484L157.369 68.9899Z" fill="#B62929" stroke="white" stroke-width="3"/>
<path d="M71.1708 32.5207C71.4968 32.1589 71.7359 31.7864 71.8883 31.4032C72.0503 31.0094 72.1027 30.5553 72.0454 30.0411C71.9882 29.5269 71.8032 28.8976 71.4905 28.1533C71.1981 27.4079 70.745 26.4986 70.1311 25.4252C69.4163 24.1643 68.777 22.8945 68.2133 21.6157C67.6592 20.3262 67.2685 19.0586 67.0412 17.8129C66.8235 16.5566 66.8464 15.3434 67.1098 14.1735C67.3829 12.993 67.9891 11.8813 68.9286 10.8384C69.8297 9.83801 70.8632 9.14007 72.0291 8.74454C73.2046 8.33837 74.4455 8.21275 75.7517 8.36769C77.0782 8.52157 78.4183 8.93841 79.7722 9.61822C81.1357 10.2874 82.4613 11.2019 83.749 12.3619C85.4517 13.8956 86.6838 15.5453 87.4453 17.3107C88.227 19.0751 88.4961 20.8308 88.2526 22.5777C88.0294 24.3236 87.2563 25.9308 85.9334 27.3994L80.3623 22.3811C80.8896 21.7958 81.2321 21.1694 81.39 20.5019C81.5585 19.8441 81.5183 19.1718 81.2695 18.485C81.0207 17.7982 80.5344 17.1289 79.8108 16.477C79.1084 15.8443 78.4219 15.4187 77.7513 15.2002C77.0807 14.9816 76.46 14.9431 75.8893 15.0844C75.3282 15.2151 74.8559 15.4933 74.4725 15.919C74.1562 16.2702 73.9643 16.6757 73.8971 17.1356C73.85 17.5944 73.8972 18.1092 74.0385 18.6799C74.1905 19.2601 74.4266 19.8969 74.7467 20.5901C75.0775 21.2929 75.477 22.0479 75.945 22.855C76.8248 24.3608 77.5231 25.7898 78.0399 27.1421C78.577 28.4933 78.8974 29.7747 79.0012 30.9863C79.1253 32.1968 79.0076 33.3439 78.6484 34.4275C78.2998 35.5207 77.6845 36.5568 76.8026 37.5359C75.8632 38.5788 74.827 39.3225 73.694 39.7671C72.5611 40.2116 71.3628 40.3755 70.0992 40.2589C68.8451 40.1317 67.5619 39.7372 66.2495 39.0756C64.9371 38.4139 63.6318 37.4983 62.3334 36.3287C61.1415 35.2551 60.0998 34.0468 59.2082 32.704C58.3369 31.3601 57.7158 29.9524 57.3449 28.4809C56.9835 26.9988 56.9666 25.5089 57.2941 24.0111C57.6418 22.5123 58.434 21.0765 59.6706 19.7036L65.2896 24.7651C64.676 25.4462 64.2488 26.1024 64.008 26.7336C63.7671 27.3648 63.6928 27.9822 63.7852 28.5859C63.8871 29.1789 64.136 29.7694 64.5318 30.3572C64.9372 30.9344 65.4697 31.5202 66.1295 32.1145C66.8426 32.7568 67.5083 33.1733 68.1267 33.3642C68.7548 33.5444 69.3233 33.5553 69.8322 33.3969C70.3508 33.2278 70.797 32.9358 71.1708 32.5207ZM100.484 36.8627L78.2807 50.1155L72.2627 44.6945L101.739 29.1453L105.554 32.582L100.484 36.8627ZM88.6407 59.4476L99.4939 35.9712L103.16 30.4251L107.023 33.9048L94.6747 64.8829L88.6407 59.4476ZM96.2251 50.5784L92.3283 54.9044L80.404 44.1631L84.3008 39.8371L96.2251 50.5784ZM115.621 75.9443L111.739 80.2543L99.9903 69.6712L103.873 65.3612L115.621 75.9443ZM122.922 48.2265L101.986 71.4686L96.3827 66.4215L117.319 43.1794L122.922 48.2265ZM133.979 92.4804L130.097 96.7904L117.709 85.6322L121.592 81.3221L133.979 92.4804ZM140.641 64.1875L119.705 87.4296L114.102 82.3824L135.038 59.1404L140.641 64.1875ZM141.125 81.337L137.372 85.5033L126.581 75.783L130.334 71.6167L141.125 81.337ZM151.081 73.5915L147.184 77.9174L134.749 66.716L138.645 62.3901L151.081 73.5915Z" fill="white"/>
</g>
</svg>
