<svg width="32" height="32" viewBox="0 0 32 32" fill="none" xmlns="http://www.w3.org/2000/svg">
<path d="M28.5401 10.8274L21.0987 3.46301L23.55 1.00822C24.2211 0.336073 25.0458 0 26.024 0C27.001 0 27.8251 0.336073 28.4963 1.00822L30.9476 3.46301C31.6188 4.13516 31.969 4.94641 31.9982 5.89677C32.0274 6.84595 31.7064 7.65662 31.0352 8.32877L28.5401 10.8274ZM1.75093 32C1.25483 32 0.839278 31.8317 0.504267 31.495C0.168089 31.1595 0 30.7434 0 30.2466V25.2931C0 25.0594 0.0437732 24.8332 0.13132 24.6146C0.218866 24.3948 0.350185 24.1973 0.525278 24.0219L18.5598 5.96164L26.0013 13.4137L7.96671 31.474C7.79162 31.6493 7.59493 31.7808 7.37665 31.8685C7.1572 31.9562 6.93075 32 6.69729 32H1.75093Z" fill="#312B26"/>
</svg>
