<svg width="40" height="20" viewBox="0 0 40 20" fill="none" xmlns="http://www.w3.org/2000/svg">
<path fill-rule="evenodd" clip-rule="evenodd" d="M20.3178 0.849998V15.7016L22.9829 16.7699L21.7221 19.6992L19.0865 18.6397C18.4939 18.3912 18.0928 18.0126 17.7881 17.585C17.4955 17.1475 17.2786 16.5495 17.2786 15.7425V0.849998H20.3178ZM0.10444 11.8881C0.170634 7.64103 3.78753 4.25079 8.17637 4.31585C11.9014 4.37234 14.9878 6.89534 15.7985 10.251L1.39134 16.2054C0.554435 14.9683 0.0788019 13.4799 0.10444 11.8881ZM3.4009 12.4836C3.38116 12.3054 3.36718 12.1227 3.37246 11.9383C3.41379 9.43607 5.54319 7.43939 8.12895 7.48086C9.53642 7.49904 10.7862 8.12228 11.631 9.08689L3.4009 12.4836ZM11.3277 15.2409C10.4594 16.0577 9.28189 16.5553 7.98178 16.5374C7.09065 16.523 6.26493 16.265 5.5629 15.8352L3.82244 18.5168C5.0144 19.2454 6.41985 19.6764 7.93501 19.6991C10.1405 19.7308 12.1508 18.893 13.6125 17.5097L11.3277 15.2409ZM31.41 7.48079C30.8908 7.48079 30.3919 7.56192 29.9257 7.71322L28.8887 4.70822C29.6802 4.45265 30.5279 4.31382 31.41 4.31382C35.2593 4.31382 38.4705 6.95792 39.2069 10.4703L35.9966 11.1032C35.564 9.03603 33.6749 7.48079 31.41 7.48079ZM26.1392 17.7691L28.3083 15.3971C27.3395 14.5677 26.7295 13.3564 26.7295 12.0062C26.7295 10.6574 27.3395 9.4467 28.3074 8.61792L26.1367 6.24593C24.491 7.65527 23.4541 9.7146 23.4541 12.0062C23.4541 14.3007 24.4918 16.3593 26.1392 17.7691ZM31.4098 16.5333C33.6727 16.5333 35.5615 14.9794 35.9966 12.9153L39.2059 13.5508C38.466 17.0595 35.2557 19.7 31.4098 19.7C30.527 19.7 29.6783 19.5607 28.8846 19.3039L29.9242 16.3C30.3911 16.4508 30.8903 16.5333 31.4098 16.5333Z" fill="black"/>
</svg>
