<svg width="46" height="45" viewBox="0 0 46 45" fill="none" xmlns="http://www.w3.org/2000/svg">
<path d="M17.2665 0.280518C21.6441 0.280518 25.8425 2.01952 28.9379 5.11498C32.0334 8.21043 33.7724 12.4088 33.7724 16.7864C33.7724 20.8748 32.2742 24.633 29.811 27.5279L30.4966 28.2135H32.5027L45.1995 40.9104L41.3905 44.7194L28.6936 32.0226V30.0165L28.008 29.3309C25.1131 31.794 21.3549 33.2923 17.2665 33.2923C12.8889 33.2923 8.69053 31.5533 5.59508 28.4578C2.49963 25.3624 0.76062 21.164 0.76062 16.7864C0.76062 12.4088 2.49963 8.21043 5.59508 5.11498C8.69053 2.01952 12.8889 0.280518 17.2665 0.280518ZM17.2665 5.35925C10.9181 5.35925 5.83935 10.438 5.83935 16.7864C5.83935 23.1348 10.9181 28.2135 17.2665 28.2135C23.6149 28.2135 28.6936 23.1348 28.6936 16.7864C28.6936 10.438 23.6149 5.35925 17.2665 5.35925Z" fill="black"/>
</svg>
