<svg width="282" height="86" viewBox="0 0 282 86" fill="none" xmlns="http://www.w3.org/2000/svg">
<path d="M69.499 33.9994C70.4979 30.4993 70.499 29.9994 73.999 27.4994C77.499 24.9993 78.4979 24.0327 85.499 24.0327C92.5001 24.0327 97 31.5 97 31.5C97 31.5 100.5 35 101.5 42.5C102.5 50 101 51.5 101 51.5C101 51.5 99.5 56.5 95.5 63C91.5 69.5 89 68 89 68C89 68 86.5 68 83.5 66C80.5 64 76.5 59.5 73 52.5C69.5001 45.5 68.5001 37.4994 69.499 33.9994Z" fill="#FFB578"/>
<path d="M124.5 81.5117C124.5 81.5117 125 80.0117 124.5 78.0117C124 76.0117 123 74.0117 121 70.0117C119 66.0117 116.5 62.5117 116.5 62.5117C116.5 62.5117 115.5 61.0117 115.5 60.5117C115.5 60.0117 116 47.5117 116 47.5117C116.11 47.4963 115 41.0117 112.5 35.5117C110 30.0117 106.5 24.5117 106.5 24.5117C106.5 24.5117 106 17.0117 105.5 16.0117C105.5 16.0117 100.5 1.51235 94.9996 1.0135C89.4996 0.514645 78.4996 14.0114 78.4996 14.0114C78.4996 14.0114 71.5 11.5 59.9996 13.5146C48.4993 15.5293 45.9996 19.5146 44.9996 20.0146C43.9996 20.5146 24.75 12.5146 20.9996 17.5146C17.2492 22.5146 20.9996 31.0146 20.9996 31.0146L25.9996 40.0146C27.4996 40.0146 26.333 46.0146 26.4996 48.5146L23.5 59.0146L16.5 72.5146L13 85.0146M5.5 77.0146L32.5 63.0146M1 62.0146L31.5 56.5146M0 48.0146H30M106 58.5146L135 65.0146M106 51.0146H136M106.5 44.0146L135 35.0146M58 56.0146C58 56.0146 59.5 61.5146 62 60.0146C64.5 58.5146 66 55.0146 67.5 55.0146C69 55.0146 66.5 55.0146 68.5 55.0146C70.5 55.0146 71 59.0146 74.5 59.5146C78 60.0146 78.5 53.0146 78.5 53.0146" stroke="black" stroke-width="2"/>
<circle cx="89.5" cy="51.5" r="4.5" fill="#FF9480"/>
<circle cx="85" cy="44" r="8" fill="black"/>
<circle cx="83" cy="41" r="2" fill="#D9D9D9"/>
<circle cx="86.5" cy="45.5" r="3.5" fill="#D9D9D9"/>
<circle cx="45.5" cy="55.5" r="4.5" fill="#FF9480"/>
<circle cx="48" cy="48" r="8" fill="black"/>
<circle cx="46" cy="45" r="2" fill="#D9D9D9"/>
<circle cx="49.5" cy="49.5" r="3.5" fill="#D9D9D9"/>
<path d="M93.0672 6.0251C96.7962 6.4295 99.0669 13.5251 99.0669 13.5251C99.0669 13.5251 101.155 22.5252 99.5669 23.0251C97.9788 23.5251 87.655 21.0252 83.5669 20.5251C79.4788 20.0251 84.5672 13.5252 85.5672 12.0251C86.5672 10.5251 89.2139 5.60722 93.0672 6.0251Z" fill="#F05F4B"/>
<path d="M24.0865 20.6014C26.1006 18.4074 32.5195 20.7487 32.5195 20.7487C32.5195 20.7487 40.2986 24.2304 39.9504 25.5257C39.6023 26.8209 32.98 32.1538 30.729 34.5286C28.4781 36.9034 25.8803 30.1238 25.201 28.6719C24.5217 27.22 22.0054 22.8685 24.0865 20.6014Z" fill="#F05F4B"/>
<path d="M167.58 68.47C168.707 67.6467 169.725 66.65 170.635 65.48C171.545 64.2667 172.303 63.66 172.91 63.66C173.56 63.66 173.885 64.6133 173.885 66.52C173.885 68.3833 173.343 70.16 172.26 71.85C171.22 73.4967 169.833 74.8833 168.1 76.01C164.547 78.35 160.343 79.52 155.49 79.52C149.597 79.52 145.025 78.0467 141.775 75.1C138.525 72.1533 136.9 68.0583 136.9 62.815C136.9 56.3583 138.46 50.2267 141.58 44.42C142.62 42.5133 143.79 40.7583 145.09 39.155C144.093 37.985 143.292 36.7717 142.685 35.515C142.122 34.215 141.84 33.24 141.84 32.59C141.84 31.42 142.273 30.835 143.14 30.835C143.747 30.8783 144.44 31.29 145.22 32.07L147.235 34.02C147.755 34.54 148.297 34.9733 148.86 35.32C153.15 31.68 157.765 29.86 162.705 29.86C167.688 29.86 170.917 31.2467 172.39 34.02C172.91 35.06 173.17 36.3383 173.17 37.855C173.17 40.1517 172.173 42.08 170.18 43.64C168.187 45.2 165.5 45.98 162.12 45.98C158.783 45.98 155.317 45.2867 151.72 43.9C148.643 49.1433 147.105 54.625 147.105 60.345C147.105 68.275 150.268 72.24 156.595 72.24C160.495 72.24 164.157 70.9833 167.58 68.47ZM154.84 39.87C157.05 40.6067 159.455 40.975 162.055 40.975C164.655 40.975 165.955 40.26 165.955 38.83C165.955 37.14 164.893 36.295 162.77 36.295C159.867 36.295 157.223 37.4867 154.84 39.87ZM192.269 57.16C192.269 55.6 191.337 54.82 189.474 54.82C187.654 54.82 185.855 56.25 184.079 59.11C182.302 61.9267 181.197 64.8083 180.764 67.755C180.85 68.7517 180.937 69.7483 181.024 70.745C181.11 71.7417 181.154 72.7167 181.154 73.67C181.154 75.9667 180.395 77.5267 178.879 78.35C178.185 78.74 177.514 79.1083 176.864 79.455C176.257 79.8017 175.542 79.975 174.719 79.975C173.895 79.975 173.159 79.4333 172.509 78.35C171.902 77.2233 171.599 75.49 171.599 73.15C171.599 66.6067 172.075 60.93 173.029 56.12C174.502 48.6667 177.427 40.6933 181.804 32.2C182.41 31.03 183.299 30.4667 184.469 30.51C185.639 30.51 186.592 31.3117 187.329 32.915C188.065 34.5183 188.412 35.8617 188.369 36.945C188.369 38.0283 188.195 39.09 187.849 40.13C187.545 41.1267 187.134 42.1233 186.614 43.12C186.137 44.0733 185.574 45.07 184.924 46.11C184.317 47.1067 183.71 48.19 183.104 49.36L182.129 54.04C183.819 51.2233 186.094 49.3383 188.954 48.385C189.994 48.0383 191.142 47.865 192.399 47.865C195.345 47.865 197.577 48.5367 199.094 49.88C200.61 51.18 201.369 53.0433 201.369 55.47C201.369 57.8533 201.044 60.28 200.394 62.75C199.787 65.22 199.332 66.9967 199.029 68.08C198.769 69.12 198.639 69.9867 198.639 70.68C198.639 71.3733 198.877 71.72 199.354 71.72C200.004 71.72 200.805 71.3083 201.759 70.485C202.712 69.6617 203.665 68.7733 204.619 67.82C205.572 66.8233 206.439 65.9133 207.219 65.09C208.042 64.2667 208.605 63.855 208.909 63.855C209.515 63.855 209.819 64.5917 209.819 66.065C209.819 69.0983 208.324 72.0233 205.334 74.84C200.307 77.7867 197.1 79.26 195.714 79.26C195.584 79.26 195.497 79.2383 195.454 79.195C191.987 79.195 190.254 76.4217 190.254 70.875C190.254 68.4917 190.47 66.3033 190.904 64.31C191.38 62.3167 191.727 60.865 191.944 59.955C192.16 59.045 192.269 58.1133 192.269 57.16ZM214.352 79.195C210.018 79.195 207.852 75.1433 207.852 67.04C207.852 62.62 208.393 58.6117 209.477 55.015C211.167 49.4683 213.073 46.695 215.197 46.695C216.453 46.695 217.45 47.54 218.187 49.23C218.793 50.53 219.075 51.8083 219.032 53.065C219.032 54.7983 218.512 57.8533 217.472 62.23C216.475 66.0433 215.977 68.405 215.977 69.315C215.977 70.225 216.193 70.8533 216.627 71.2C217.103 71.5467 217.645 71.72 218.252 71.72C218.902 71.72 219.703 71.3083 220.657 70.485C221.61 69.6617 222.563 68.7733 223.517 67.82C224.47 66.8233 225.337 65.9133 226.117 65.09C226.94 64.2667 227.503 63.855 227.807 63.855C228.413 63.855 228.717 64.5917 228.717 66.065C228.717 69.0983 227.178 72.0667 224.102 74.97C221.068 77.83 217.818 79.2383 214.352 79.195ZM217.017 41.43C215.847 39.6967 215.262 37.8333 215.262 35.84C215.262 33.8467 215.565 32.2 216.172 30.9C216.822 29.5567 217.428 28.5817 217.992 27.975C218.555 27.325 219.205 27 219.942 27C221.155 27 222.26 27.91 223.257 29.73C224.253 31.5067 224.752 33.0017 224.752 34.215C224.752 36.4683 223.95 38.245 222.347 39.545C220.787 40.8017 219.01 41.43 217.017 41.43ZM230.928 48.45C227.721 47.0633 226.118 45.72 226.118 44.42C226.118 43.7267 226.399 43.4017 226.963 43.445C227.743 43.445 228.631 43.64 229.628 44.03C230.624 44.3767 231.643 44.6583 232.683 44.875C236.236 38.1583 240.266 33.76 244.773 31.68C246.289 30.9867 247.806 30.6183 249.323 30.575C252.313 30.575 254.588 31.3117 256.148 32.785C257.751 34.215 258.553 35.97 258.553 38.05C258.553 41.7767 256.538 44.6583 252.508 46.695C249.214 48.3417 244.729 49.36 239.053 49.75C237.016 54.7767 235.998 60.1717 235.998 65.935C235.998 70.225 236.994 72.7167 238.988 73.41C240.374 73.8867 241.414 73.9083 242.108 73.475C242.801 72.9983 243.343 72.3917 243.733 71.655C244.123 70.875 244.318 69.7483 244.318 68.275C244.361 66.8017 243.949 65.5667 243.083 64.57C242.259 63.53 241.458 62.5767 240.678 61.71C241.068 60.28 241.631 59.0883 242.368 58.135C243.754 56.2717 244.946 55.34 245.943 55.34C246.939 55.34 247.741 55.6867 248.348 56.38C248.998 57.0733 249.518 57.94 249.908 58.98C250.298 60.02 250.601 61.1467 250.818 62.36C251.078 63.5733 251.359 64.7 251.663 65.74C251.966 66.78 252.334 67.6467 252.768 68.34C253.244 69.0333 253.851 69.38 254.588 69.38C255.368 69.38 256.061 69.0983 256.668 68.535C257.274 67.9283 257.816 67.2783 258.293 66.585C258.769 65.8917 259.203 65.2633 259.593 64.7C259.983 64.0933 260.373 63.79 260.763 63.79C261.196 63.79 261.608 64.1367 261.998 64.83C262.431 65.5233 262.648 66.1733 262.648 66.78C262.648 68.1667 261.954 69.8133 260.568 71.72C259.224 73.6267 257.491 74.58 255.368 74.58C253.244 74.5367 251.598 74.0817 250.428 73.215C249.691 75.035 248.434 76.5517 246.658 77.765C244.881 78.9783 242.346 79.585 239.053 79.585C235.803 79.585 233.008 78.74 230.668 77.05C227.851 75.0133 226.443 71.85 226.443 67.56C226.443 61.45 227.938 55.08 230.928 48.45ZM251.403 39.22C251.359 37.7033 250.796 36.945 249.713 36.945C248.673 36.945 247.308 37.7467 245.618 39.35C243.928 40.9533 242.303 43.185 240.743 46.045C245.466 45.2217 248.694 43.77 250.428 41.69C251.034 40.91 251.359 40.0867 251.403 39.22ZM266.847 79.195C262.513 79.195 260.347 75.1433 260.347 67.04C260.347 62.62 260.888 58.6117 261.972 55.015C263.662 49.4683 265.568 46.695 267.692 46.695C268.948 46.695 269.945 47.54 270.682 49.23C271.288 50.53 271.57 51.8083 271.527 53.065C271.527 54.7983 271.007 57.8533 269.967 62.23C268.97 66.0433 268.472 68.405 268.472 69.315C268.472 70.225 268.688 70.8533 269.122 71.2C269.598 71.5467 270.14 71.72 270.747 71.72C271.397 71.72 272.198 71.3083 273.152 70.485C274.105 69.6617 275.058 68.7733 276.012 67.82C276.965 66.8233 277.832 65.9133 278.612 65.09C279.435 64.2667 279.998 63.855 280.302 63.855C280.908 63.855 281.212 64.5917 281.212 66.065C281.212 69.0983 279.673 72.0667 276.597 74.97C273.563 77.83 270.313 79.2383 266.847 79.195ZM269.512 41.43C268.342 39.6967 267.757 37.8333 267.757 35.84C267.757 33.8467 268.06 32.2 268.667 30.9C269.317 29.5567 269.923 28.5817 270.487 27.975C271.05 27.325 271.7 27 272.437 27C273.65 27 274.755 27.91 275.752 29.73C276.748 31.5067 277.247 33.0017 277.247 34.215C277.247 36.4683 276.445 38.245 274.842 39.545C273.282 40.8017 271.505 41.43 269.512 41.43Z" fill="black"/>
</svg>
