<svg width="285" height="89" viewBox="0 0 285 89" fill="none" xmlns="http://www.w3.org/2000/svg">
<mask id="mask0_466_461" style="mask-type:alpha" maskUnits="userSpaceOnUse" x="0" y="0" width="285" height="89">
<rect width="285" height="89" fill="#D9D9D9"/>
</mask>
<g mask="url(#mask0_466_461)">
<path d="M171.58 63.47C172.707 62.6467 173.725 61.65 174.635 60.48C175.545 59.2667 176.303 58.66 176.91 58.66C177.56 58.66 177.885 59.6133 177.885 61.52C177.885 63.3833 177.343 65.16 176.26 66.85C175.22 68.4967 173.833 69.8833 172.1 71.01C168.547 73.35 164.343 74.52 159.49 74.52C153.597 74.52 149.025 73.0467 145.775 70.1C142.525 67.1533 140.9 63.0583 140.9 57.815C140.9 51.3583 142.46 45.2267 145.58 39.42C146.62 37.5133 147.79 35.7583 149.09 34.155C148.093 32.985 147.292 31.7717 146.685 30.515C146.122 29.215 145.84 28.24 145.84 27.59C145.84 26.42 146.273 25.835 147.14 25.835C147.747 25.8783 148.44 26.29 149.22 27.07L151.235 29.02C151.755 29.54 152.297 29.9733 152.86 30.32C157.15 26.68 161.765 24.86 166.705 24.86C171.688 24.86 174.917 26.2467 176.39 29.02C176.91 30.06 177.17 31.3383 177.17 32.855C177.17 35.1517 176.173 37.08 174.18 38.64C172.187 40.2 169.5 40.98 166.12 40.98C162.783 40.98 159.317 40.2867 155.72 38.9C152.643 44.1433 151.105 49.625 151.105 55.345C151.105 63.275 154.268 67.24 160.595 67.24C164.495 67.24 168.157 65.9833 171.58 63.47ZM158.84 34.87C161.05 35.6067 163.455 35.975 166.055 35.975C168.655 35.975 169.955 35.26 169.955 33.83C169.955 32.14 168.893 31.295 166.77 31.295C163.867 31.295 161.223 32.4867 158.84 34.87ZM196.269 52.16C196.269 50.6 195.337 49.82 193.474 49.82C191.654 49.82 189.855 51.25 188.079 54.11C186.302 56.9267 185.197 59.8083 184.764 62.755C184.85 63.7517 184.937 64.7483 185.024 65.745C185.11 66.7417 185.154 67.7167 185.154 68.67C185.154 70.9667 184.395 72.5267 182.879 73.35C182.185 73.74 181.514 74.1083 180.864 74.455C180.257 74.8017 179.542 74.975 178.719 74.975C177.895 74.975 177.159 74.4333 176.509 73.35C175.902 72.2233 175.599 70.49 175.599 68.15C175.599 61.6067 176.075 55.93 177.029 51.12C178.502 43.6667 181.427 35.6933 185.804 27.2C186.41 26.03 187.299 25.4667 188.469 25.51C189.639 25.51 190.592 26.3117 191.329 27.915C192.065 29.5183 192.412 30.8617 192.369 31.945C192.369 33.0283 192.195 34.09 191.849 35.13C191.545 36.1267 191.134 37.1233 190.614 38.12C190.137 39.0733 189.574 40.07 188.924 41.11C188.317 42.1067 187.71 43.19 187.104 44.36L186.129 49.04C187.819 46.2233 190.094 44.3383 192.954 43.385C193.994 43.0383 195.142 42.865 196.399 42.865C199.345 42.865 201.577 43.5367 203.094 44.88C204.61 46.18 205.369 48.0433 205.369 50.47C205.369 52.8533 205.044 55.28 204.394 57.75C203.787 60.22 203.332 61.9967 203.029 63.08C202.769 64.12 202.639 64.9867 202.639 65.68C202.639 66.3733 202.877 66.72 203.354 66.72C204.004 66.72 204.805 66.3083 205.759 65.485C206.712 64.6617 207.665 63.7733 208.619 62.82C209.572 61.8233 210.439 60.9133 211.219 60.09C212.042 59.2667 212.605 58.855 212.909 58.855C213.515 58.855 213.819 59.5917 213.819 61.065C213.819 64.0983 212.324 67.0233 209.334 69.84C204.307 72.7867 201.1 74.26 199.714 74.26C199.584 74.26 199.497 74.2383 199.454 74.195C195.987 74.195 194.254 71.4217 194.254 65.875C194.254 63.4917 194.47 61.3033 194.904 59.31C195.38 57.3167 195.727 55.865 195.944 54.955C196.16 54.045 196.269 53.1133 196.269 52.16ZM218.352 74.195C214.018 74.195 211.852 70.1433 211.852 62.04C211.852 57.62 212.393 53.6117 213.477 50.015C215.167 44.4683 217.073 41.695 219.197 41.695C220.453 41.695 221.45 42.54 222.187 44.23C222.793 45.53 223.075 46.8083 223.032 48.065C223.032 49.7983 222.512 52.8533 221.472 57.23C220.475 61.0433 219.977 63.405 219.977 64.315C219.977 65.225 220.193 65.8533 220.627 66.2C221.103 66.5467 221.645 66.72 222.252 66.72C222.902 66.72 223.703 66.3083 224.657 65.485C225.61 64.6617 226.563 63.7733 227.517 62.82C228.47 61.8233 229.337 60.9133 230.117 60.09C230.94 59.2667 231.503 58.855 231.807 58.855C232.413 58.855 232.717 59.5917 232.717 61.065C232.717 64.0983 231.178 67.0667 228.102 69.97C225.068 72.83 221.818 74.2383 218.352 74.195ZM221.017 36.43C219.847 34.6967 219.262 32.8333 219.262 30.84C219.262 28.8467 219.565 27.2 220.172 25.9C220.822 24.5567 221.428 23.5817 221.992 22.975C222.555 22.325 223.205 22 223.942 22C225.155 22 226.26 22.91 227.257 24.73C228.253 26.5067 228.752 28.0017 228.752 29.215C228.752 31.4683 227.95 33.245 226.347 34.545C224.787 35.8017 223.01 36.43 221.017 36.43ZM234.928 43.45C231.721 42.0633 230.118 40.72 230.118 39.42C230.118 38.7267 230.399 38.4017 230.963 38.445C231.743 38.445 232.631 38.64 233.628 39.03C234.624 39.3767 235.643 39.6583 236.683 39.875C240.236 33.1583 244.266 28.76 248.773 26.68C250.289 25.9867 251.806 25.6183 253.323 25.575C256.313 25.575 258.588 26.3117 260.148 27.785C261.751 29.215 262.553 30.97 262.553 33.05C262.553 36.7767 260.538 39.6583 256.508 41.695C253.214 43.3417 248.729 44.36 243.053 44.75C241.016 49.7767 239.998 55.1717 239.998 60.935C239.998 65.225 240.994 67.7167 242.988 68.41C244.374 68.8867 245.414 68.9083 246.108 68.475C246.801 67.9983 247.343 67.3917 247.733 66.655C248.123 65.875 248.318 64.7483 248.318 63.275C248.361 61.8017 247.949 60.5667 247.083 59.57C246.259 58.53 245.458 57.5767 244.678 56.71C245.068 55.28 245.631 54.0883 246.368 53.135C247.754 51.2717 248.946 50.34 249.943 50.34C250.939 50.34 251.741 50.6867 252.348 51.38C252.998 52.0733 253.518 52.94 253.908 53.98C254.298 55.02 254.601 56.1467 254.818 57.36C255.078 58.5733 255.359 59.7 255.663 60.74C255.966 61.78 256.334 62.6467 256.768 63.34C257.244 64.0333 257.851 64.38 258.588 64.38C259.368 64.38 260.061 64.0983 260.668 63.535C261.274 62.9283 261.816 62.2783 262.293 61.585C262.769 60.8917 263.203 60.2633 263.593 59.7C263.983 59.0933 264.373 58.79 264.763 58.79C265.196 58.79 265.608 59.1367 265.998 59.83C266.431 60.5233 266.648 61.1733 266.648 61.78C266.648 63.1667 265.954 64.8133 264.568 66.72C263.224 68.6267 261.491 69.58 259.368 69.58C257.244 69.5367 255.598 69.0817 254.428 68.215C253.691 70.035 252.434 71.5517 250.658 72.765C248.881 73.9783 246.346 74.585 243.053 74.585C239.803 74.585 237.008 73.74 234.668 72.05C231.851 70.0133 230.443 66.85 230.443 62.56C230.443 56.45 231.938 50.08 234.928 43.45ZM255.403 34.22C255.359 32.7033 254.796 31.945 253.713 31.945C252.673 31.945 251.308 32.7467 249.618 34.35C247.928 35.9533 246.303 38.185 244.743 41.045C249.466 40.2217 252.694 38.77 254.428 36.69C255.034 35.91 255.359 35.0867 255.403 34.22ZM270.847 74.195C266.513 74.195 264.347 70.1433 264.347 62.04C264.347 57.62 264.888 53.6117 265.972 50.015C267.662 44.4683 269.568 41.695 271.692 41.695C272.948 41.695 273.945 42.54 274.682 44.23C275.288 45.53 275.57 46.8083 275.527 48.065C275.527 49.7983 275.007 52.8533 273.967 57.23C272.97 61.0433 272.472 63.405 272.472 64.315C272.472 65.225 272.688 65.8533 273.122 66.2C273.598 66.5467 274.14 66.72 274.747 66.72C275.397 66.72 276.198 66.3083 277.152 65.485C278.105 64.6617 279.058 63.7733 280.012 62.82C280.965 61.8233 281.832 60.9133 282.612 60.09C283.435 59.2667 283.998 58.855 284.302 58.855C284.908 58.855 285.212 59.5917 285.212 61.065C285.212 64.0983 283.673 67.0667 280.597 69.97C277.563 72.83 274.313 74.2383 270.847 74.195ZM273.512 36.43C272.342 34.6967 271.757 32.8333 271.757 30.84C271.757 28.8467 272.06 27.2 272.667 25.9C273.317 24.5567 273.923 23.5817 274.487 22.975C275.05 22.325 275.7 22 276.437 22C277.65 22 278.755 22.91 279.752 24.73C280.748 26.5067 281.247 28.0017 281.247 29.215C281.247 31.4683 280.445 33.245 278.842 34.545C277.282 35.8017 275.505 36.43 273.512 36.43Z" fill="#262220"/>
<circle cx="41.6359" cy="57.2985" r="3.64227" fill="#FF9480"/>
<path d="M66.0649 41.0922C64.7938 30.1032 71.9421 26.0066 80.2941 24.6452C90.782 22.9356 97.6238 38.5616 98.6981 43.3366C99.7662 48.084 94.6247 69.027 85.2026 68.1675C85.0946 68.1577 84.9841 68.1627 84.8771 68.1799C78.3856 69.2259 67.3256 51.9911 66.0649 41.0922Z" fill="#FFB578"/>
<path d="M15.8953 22.1676C16.4165 30.1323 18.4085 34.859 21.8299 39.4358C25.9356 44.9281 22.4334 54.8809 18.7948 63.7175C17.7856 66.1683 16.8562 67.375 15.7594 69.7879C14.3708 72.8429 13.009 76.812 11.9283 80.2647C10.7285 84.0976 13.7249 87.8566 17.7387 87.7147L115.992 84.2419C119.533 84.1168 121.971 80.9967 120.7 77.6892C119.891 75.5828 118.747 72.9492 117.136 69.7879C115.881 67.3246 114.469 66.3043 113.494 63.7174C111.57 58.6155 114.237 55.157 113.494 49.7554C112.366 41.5591 106.448 30.7069 104.445 27.2146C104.011 26.4587 103.734 25.629 103.626 24.7643C102.649 16.9364 100.945 11.7607 95.2702 4.32533C93.5657 2.09191 90.4477 1.47087 88.0661 2.9612C83.8855 5.5772 81.3311 8.11945 79.4026 11.5884C77.8162 14.442 74.5963 16.1265 71.4249 15.3508C61.8758 13.0153 55.1185 13.831 46.4923 18.6133L44.2019 20.0207C42.3782 21.1414 40.103 21.1879 38.1918 20.2238C32.4042 17.3045 28.1183 16.0094 20.9239 16.4437C17.9483 16.6233 15.7007 19.193 15.8953 22.1676Z" fill="#F6F2EE" stroke="black" stroke-width="3"/>
<path d="M23.8223 36.3794C21.9756 33.1974 17.2753 24.1272 21.6036 20.8757C25.6051 17.8697 32.93 21.8053 35.5429 23.3914C36.0577 23.7039 36.1464 24.3981 35.7463 24.8482L25.3735 36.5176C24.9344 37.0116 24.154 36.9511 23.8223 36.3794Z" fill="#F05F4B"/>
<path d="M90.8065 7.62108C84.677 6.37034 81.6345 14.2961 80.7671 17.0681C80.6051 17.586 80.9179 18.1129 81.4417 18.2545L97.6418 22.6331C98.3061 22.8126 98.9383 22.2886 98.8481 21.6064C98.3771 18.0444 96.6047 8.80422 90.8065 7.62108Z" fill="#F05F4B"/>
<circle cx="44.6711" cy="48.1928" r="7.89158" fill="black"/>
<path d="M53.9039 55.7537C54.104 58.1159 55.5671 59.8067 57.876 60.3442C61.0165 61.0751 60.9938 55.3898 64.1985 55.0338C67.5966 54.6564 68.6393 60.6641 71.8041 59.3702C74.5536 58.2461 75.9163 55.2712 74.9717 52.4549" stroke="black" stroke-width="2"/>
<path d="M101.126 51.5501H133.907M101.126 59.6027L132.596 65.797M101.126 45.3558L132.596 35.4448" stroke="black" stroke-width="2"/>
<path d="M29.0429 56.76L-3.23945 62.4523M27.6446 48.8297L-4.42211 48.1941M30.1186 62.8602L0.848496 78.0852" stroke="black" stroke-width="2"/>
<circle cx="42.243" cy="44.5506" r="1.82113" fill="white"/>
<circle cx="46.4924" cy="50.0139" r="3.64227" fill="white"/>
<circle cx="87.7714" cy="52.4421" r="3.64227" fill="#FF9480"/>
<circle cx="82.3081" cy="44.5503" r="7.89158" fill="black"/>
<circle cx="79.8797" cy="40.908" r="1.82113" fill="white"/>
<circle cx="84.1291" cy="46.3718" r="3.64227" fill="white"/>
</g>
</svg>
