<svg width="56" height="35" viewBox="0 0 56 35" fill="none" xmlns="http://www.w3.org/2000/svg">
<path d="M21.6598 17.6272C21.6598 12.1961 24.2187 7.35826 28.2036 4.24056C25.2896 1.96075 21.6119 0.600006 17.615 0.600006C8.15291 0.600006 0.482758 8.2232 0.482758 17.6272C0.482758 27.0311 8.15291 34.6543 17.615 34.6543C21.6119 34.6543 25.2896 33.2936 28.2036 31.0138C24.2187 27.8961 21.6598 23.0582 21.6598 17.6272Z" fill="#EB001B"/>
<path d="M55.9092 17.6272C55.9092 27.0311 48.239 34.6543 38.7769 34.6543C34.7801 34.6543 31.1024 33.2936 28.1873 31.0138C32.1732 27.8961 34.7321 23.0582 34.7321 17.6272C34.7321 12.1961 32.1732 7.35826 28.1873 4.24056C31.1024 1.96075 34.7801 0.600006 38.7769 0.600006C48.239 0.600006 55.9092 8.2232 55.9092 17.6272Z" fill="#F79E1B"/>
</svg>
