<svg width="70" height="22" viewBox="0 0 70 22" fill="none" xmlns="http://www.w3.org/2000/svg">
<path d="M30.2957 20.7782H24.7032L28.2011 0.477173H33.7933L30.2957 20.7782Z" fill="#15195A"/>
<path d="M50.5686 0.973487C49.4655 0.562724 47.7159 0.109192 45.5525 0.109192C40.0298 0.109192 36.1407 2.87344 36.1168 6.82549C36.0709 9.7413 38.9013 11.3608 41.0182 12.333C43.1818 13.3265 43.9173 13.9749 43.9173 14.8605C43.8953 16.2205 42.169 16.8474 40.5588 16.8474C38.3261 16.8474 37.1297 16.5242 35.3116 15.7675L34.5752 15.4432L33.7926 20.0003C35.1043 20.5612 37.5208 21.0589 40.0298 21.0808C45.8978 21.0808 49.7181 18.3593 49.7633 14.1477C49.7857 11.8367 48.2911 10.066 45.069 8.61895C43.113 7.69007 41.9151 7.06374 41.9151 6.11333C41.9381 5.24932 42.9283 4.36436 45.1363 4.36436C46.9544 4.32102 48.2902 4.7312 49.3022 5.14168L49.808 5.35725L50.5686 0.973487Z" fill="#15195A"/>
<path fill-rule="evenodd" clip-rule="evenodd" d="M60.5793 0.477173H64.9051L69.4168 20.7779H64.2387C64.2387 20.7779 63.732 18.4454 63.5714 17.7326H56.3911C56.1835 18.2723 55.2174 20.7779 55.2174 20.7779H49.3494L57.6563 2.16156C58.2319 0.844017 59.2453 0.477173 60.5793 0.477173ZM60.2348 7.9062C60.2348 7.9062 58.4625 12.42 58.002 13.5863H62.6504C62.4204 12.5713 61.3614 7.71187 61.3614 7.71187L60.9706 5.96262C60.806 6.41306 60.568 7.03236 60.4074 7.45006C60.2986 7.7332 60.2254 7.92372 60.2348 7.9062Z" fill="#15195A"/>
<path fill-rule="evenodd" clip-rule="evenodd" d="M0.47169 0.477173H9.46947C10.6891 0.519943 11.6787 0.887074 12.0007 2.18366L13.956 11.5102C13.9563 11.5111 13.9566 11.512 13.9568 11.5129L14.5553 14.3205L20.0322 0.477173H25.9458L17.1554 20.7567H11.2415L6.25691 3.11693C4.53706 2.17315 2.57422 1.41411 0.379639 0.887361L0.47169 0.477173Z" fill="#15195A"/>
</svg>
