<svg width="34" height="34" viewBox="0 0 34 34" fill="none" xmlns="http://www.w3.org/2000/svg">
<path d="M20.7778 5.66667V9.44444H30.2222V30.2222H9.44444V20.7778H5.66667V32.1111C5.66667 32.6121 5.86567 33.0925 6.21991 33.4468C6.57414 33.801 7.05459 34 7.55556 34H32.1111C32.6121 34 33.0925 33.801 33.4468 33.4468C33.801 33.0925 34 32.6121 34 32.1111V7.55556C34 7.05459 33.801 6.57414 33.4468 6.21991C33.0925 5.86567 32.6121 5.66667 32.1111 5.66667H20.7778ZM0 0V17L7.16645 9.83544L18.4979 21.1688L21.1688 18.4979L9.83733 7.16456L17 0H0Z" fill="#262220"/>
</svg>
